<svg version="1.1" xmlns="http://www.w3.org/2000/svg" xmlns:xlink="http://www.w3.org/1999/xlink" width="743.53173828125" height="324"><defs/><g><text fill="#eeeeee" stroke="none" font-family="Arial" font-size="24px" font-style="normal" font-weight="normal" text-decoration="none" x="0" y="0"></text><text fill="#eeeeee" stroke="none" font-family="Arial" font-size="24px" font-style="normal" font-weight="normal" text-decoration="none" x="0" y="30"></text><text fill="#eeeeee" stroke="none" font-family="Arial" font-size="24px" font-style="normal" font-weight="normal" text-decoration="none" x="0" y="60"></text><text fill="#eeeeee" stroke="none" font-family="Arial" font-size="24px" font-style="normal" font-weight="normal" text-decoration="none" x="0" y="90"></text><text fill="#eeeeee" stroke="none" font-family="Arial" font-size="24px" font-style="normal" font-weight="normal" text-decoration="none" x="0" y="120"></text><text fill="#eeeeee" stroke="none" font-family="Arial" font-size="24px" font-style="normal" font-weight="normal" text-decoration="none" x="0" y="150"></text><text fill="#eeeeee" stroke="none" font-family="Arial" font-size="24px" font-style="normal" font-weight="normal" text-decoration="none" x="0" y="180"></text><text fill="#eeeeee" stroke="none" font-family="Arial" font-size="24px" font-style="normal" font-weight="normal" text-decoration="none" x="0" y="210"></text><text fill="#eeeeee" stroke="none" font-family="Arial" font-size="24px" font-style="normal" font-weight="normal" text-decoration="none" x="0" y="240"></text><text fill="#eeeeee" stroke="none" font-family="Arial" font-size="24px" font-style="normal" font-weight="normal" text-decoration="none" x="0" y="270"></text><text fill="#eeeeee" stroke="none" font-family="Arial" font-size="24px" font-style="normal" font-weight="normal" text-decoration="none" x="0" y="300"></text><text fill="#eeeeee" stroke="none" font-family="Arial" font-size="24px" font-style="normal" font-weight="normal" text-decoration="none" x="200" y="0"></text><text fill="#eeeeee" stroke="none" font-family="Arial" font-size="24px" font-style="normal" font-weight="normal" text-decoration="none" x="200" y="30"></text><text fill="#eeeeee" stroke="none" font-family="Arial" font-size="24px" font-style="normal" font-weight="normal" text-decoration="none" x="200" y="60"></text><text fill="#eeeeee" stroke="none" font-family="Arial" font-size="24px" font-style="normal" font-weight="normal" text-decoration="none" x="200" y="90"></text><text fill="#eeeeee" stroke="none" font-family="Arial" font-size="24px" font-style="normal" font-weight="normal" text-decoration="none" x="200" y="120"></text><text fill="#eeeeee" stroke="none" font-family="Arial" font-size="24px" font-style="normal" font-weight="normal" text-decoration="none" x="200" y="150"></text><text fill="#eeeeee" stroke="none" font-family="Arial" font-size="24px" font-style="normal" font-weight="normal" text-decoration="none" x="200" y="180"></text><text fill="#eeeeee" stroke="none" font-family="Arial" font-size="24px" font-style="normal" font-weight="normal" text-decoration="none" x="200" y="210"></text><text fill="#eeeeee" stroke="none" font-family="Arial" font-size="24px" font-style="normal" font-weight="normal" text-decoration="none" x="200" y="240"></text><text fill="#eeeeee" stroke="none" font-family="Arial" font-size="24px" font-style="normal" font-weight="normal" text-decoration="none" x="200" y="270"></text><text fill="#eeeeee" stroke="none" font-family="Arial" font-size="24px" font-style="normal" font-weight="normal" text-decoration="none" x="200" y="300"></text><text fill="#eeeeee" stroke="none" font-family="Arial" font-size="24px" font-style="normal" font-weight="normal" text-decoration="none" x="400" y="0"></text><text fill="#eeeeee" stroke="none" font-family="Arial" font-size="24px" font-style="normal" font-weight="normal" text-decoration="none" x="400" y="30"></text><text fill="#eeeeee" stroke="none" font-family="Arial" font-size="24px" font-style="normal" font-weight="normal" text-decoration="none" x="400" y="60"></text><text fill="#eeeeee" stroke="none" font-family="Arial" font-size="24px" font-style="normal" font-weight="normal" text-decoration="none" x="400" y="90"></text><text fill="#eeeeee" stroke="none" font-family="Arial" font-size="24px" font-style="normal" font-weight="normal" text-decoration="none" x="400" y="120"></text><text fill="#eeeeee" stroke="none" font-family="Arial" font-size="24px" font-style="normal" font-weight="normal" text-decoration="none" x="400" y="150"></text><text fill="#eeeeee" stroke="none" font-family="Arial" font-size="24px" font-style="normal" font-weight="normal" text-decoration="none" x="400" y="180"></text><text fill="#eeeeee" stroke="none" font-family="Arial" font-size="24px" font-style="normal" font-weight="normal" text-decoration="none" x="400" y="210"></text><text fill="#eeeeee" stroke="none" font-family="Arial" font-size="24px" font-style="normal" font-weight="normal" text-decoration="none" x="400" y="240"></text><text fill="#eeeeee" stroke="none" font-family="Arial" font-size="24px" font-style="normal" font-weight="normal" text-decoration="none" x="400" y="270"></text><text fill="#eeeeee" stroke="none" font-family="Arial" font-size="24px" font-style="normal" font-weight="normal" text-decoration="none" x="400" y="300"></text><text fill="#eeeeee" stroke="none" font-family="Arial" font-size="24px" font-style="normal" font-weight="normal" text-decoration="none" x="600" y="0"></text><text fill="#eeeeee" stroke="none" font-family="Arial" font-size="24px" font-style="normal" font-weight="normal" text-decoration="none" x="600" y="30"></text><text fill="#eeeeee" stroke="none" font-family="Arial" font-size="24px" font-style="normal" font-weight="normal" text-decoration="none" x="600" y="60"></text><text fill="#eeeeee" stroke="none" font-family="Arial" font-size="24px" font-style="normal" font-weight="normal" text-decoration="none" x="600" y="90"></text><text fill="#eeeeee" stroke="none" font-family="Arial" font-size="24px" font-style="normal" font-weight="normal" text-decoration="none" x="600" y="120"></text><text fill="#eeeeee" stroke="none" font-family="Arial" font-size="24px" font-style="normal" font-weight="normal" text-decoration="none" x="600" y="150"></text><text fill="#eeeeee" stroke="none" font-family="Arial" font-size="24px" font-style="normal" font-weight="normal" text-decoration="none" x="600" y="180"></text><text fill="#eeeeee" stroke="none" font-family="Arial" font-size="24px" font-style="normal" font-weight="normal" text-decoration="none" x="600" y="210"></text><text fill="#eeeeee" stroke="none" font-family="Arial" font-size="24px" font-style="normal" font-weight="normal" text-decoration="none" x="600" y="240"></text><text fill="#eeeeee" stroke="none" font-family="Arial" font-size="24px" font-style="normal" font-weight="normal" text-decoration="none" x="600" y="270"></text><text fill="#eeeeee" stroke="none" font-family="Arial" font-size="24px" font-style="normal" font-weight="normal" text-decoration="none" x="600" y="300"></text><g transform="translate(-38,-78) scale(1,1)"><path fill="#ffffff" stroke="none" d="M 74.17204563210227 225.68 C 74.17204563210227 220.886167936 78.05788795704773 217 82.851318359375 217 C 87.64474876170227 217 91.53059108664773 220.886167936 91.53059108664773 225.68 C 91.53059108664773 230.47383206400002 87.64474876170227 234.36 82.851318359375 234.36 C 78.05788795704773 234.36 74.17204563210227 230.47383206400002 74.17204563210227 225.68 Z"/></g><g transform="translate(-38,-78) scale(1,1)"><path fill="none" stroke="#000000" d="M 74.17204563210227 225.68 C 74.17204563210227 220.886167936 78.05788795704773 217 82.851318359375 217 C 87.64474876170227 217 91.53059108664773 220.886167936 91.53059108664773 225.68 C 91.53059108664773 230.47383206400002 87.64474876170227 234.36 82.851318359375 234.36 C 78.05788795704773 234.36 74.17204563210227 230.47383206400002 74.17204563210227 225.68 Z" stroke-miterlimit="10"/></g><g transform="translate(-38,-78) scale(1,1)"><path fill="none" stroke="#000000" d="M 82.851318359375 234.36 L 82.851318359375 251.64" stroke-miterlimit="10"/></g><g transform="translate(-38,-78) scale(1,1)"><path fill="none" stroke="#000000" d="M 73.66150017755682 240.84 L 92.04113654119318 240.84" stroke-miterlimit="10"/></g><g transform="translate(-38,-78) scale(1,1)"><path fill="none" stroke="#000000" d="M 82.851318359375 251.64 L 70.08768199573863 269" stroke-miterlimit="10"/></g><g transform="translate(-38,-78) scale(1,1)"><path fill="none" stroke="#000000" d="M 82.851318359375 251.64 L 95.61495472301137 269" stroke-miterlimit="10"/></g><g transform="translate(-38,-78) scale(1,1)"><g><path fill="none" stroke="none"/><text fill="#000000" stroke="none" font-family="Arial" font-size="13px" font-style="normal" font-weight="bold" text-decoration="none" x="53.947265625" y="289.5">Examinee</text></g></g><g transform="translate(-38,-78) scale(1,1)"><rect fill="#C0C0C0" stroke="none" x="167" y="95" width="211.2" height="15" opacity="0.2"/></g><g transform="translate(-38,-78) scale(1,1)"><rect fill="#C0C0C0" stroke="none" x="167" y="109" width="528" height="290" opacity="0.2"/></g><g transform="translate(-38,-78) scale(1,1)"><rect fill="#ffffff" stroke="none" x="160" y="103" width="528" height="289"/></g><g transform="translate(-38,-78) scale(1,1)"><path fill="none" stroke="#000000" d="M 160 103 L 688 103 L 688 392 L 160 392 L 160 103 Z Z" stroke-miterlimit="10"/></g><g transform="translate(-38,-78) scale(1,1)"><rect fill="#ffffff" stroke="none" x="160" y="88" width="211.2" height="15"/></g><g transform="translate(-38,-78) scale(1,1)"><path fill="none" stroke="#000000" d="M 160 88 L 371.2 88 L 371.2 103 L 160 103 L 160 88 Z Z" stroke-miterlimit="10"/></g><g transform="translate(-38,-78) scale(1,1)"><rect fill="#ffffff" stroke="none" x="160" y="102" width="528" height="290"/></g><g transform="translate(-38,-78) scale(1,1)"><path fill="none" stroke="#000000" d="M 160 102 L 688 102 L 688 392 L 160 392 L 160 102 Z Z" stroke-miterlimit="10"/></g><g transform="translate(-38,-78) scale(1,1)"><g><path fill="none" stroke="none"/><text fill="#000000" stroke="none" font-family="Arial" font-size="13px" font-style="normal" font-weight="bold" text-decoration="none" x="388.95458984375" y="122.5">Exam Panel</text></g></g><g transform="translate(-38,-78) scale(1,1)"><path fill="#C0C0C0" stroke="none" d="M 199 272 C 199 262.6111584 247.5770992 255 307.5 255 C 367.4229008 255 416 262.6111584 416 272 C 416 281.3888416 367.4229008 289 307.5 289 C 247.5770992 289 199 281.3888416 199 272 Z" opacity="0.2"/></g><g transform="translate(-38,-78) scale(1,1)"><path fill="#ffffff" stroke="none" d="M 192 265 C 192 255.6111584 240.5770992 248 300.5 248 C 360.4229008 248 409 255.6111584 409 265 C 409 274.3888416 360.4229008 282 300.5 282 C 240.5770992 282 192 274.3888416 192 265 Z"/></g><g transform="translate(-38,-78) scale(1,1)"><path fill="none" stroke="#000000" d="M 192 265 C 192 255.6111584 240.5770992 248 300.5 248 C 360.4229008 248 409 255.6111584 409 265 C 409 274.3888416 360.4229008 282 300.5 282 C 240.5770992 282 192 274.3888416 192 265 Z" stroke-miterlimit="10"/></g><g transform="translate(-38,-78) scale(1,1)"><g><path fill="none" stroke="none"/><text fill="#000000" stroke="none" font-family="Arial" font-size="13px" font-style="normal" font-weight="bold" text-decoration="none" x="234.14794921875" y="272">View own score history</text></g></g><g transform="translate(-38,-78) scale(1,1)"><path fill="#C0C0C0" stroke="none" d="M 215 216 C 215 206.6111584 252.8319344 199 299.5 199 C 346.1680656 199 384 206.6111584 384 216 C 384 225.3888416 346.1680656 233 299.5 233 C 252.8319344 233 215 225.3888416 215 216 Z" opacity="0.2"/></g><g transform="translate(-38,-78) scale(1,1)"><path fill="#ffffff" stroke="none" d="M 208 209 C 208 199.6111584 245.8319344 192 292.5 192 C 339.1680656 192 377 199.6111584 377 209 C 377 218.3888416 339.1680656 226 292.5 226 C 245.8319344 226 208 218.3888416 208 209 Z"/></g><g transform="translate(-38,-78) scale(1,1)"><path fill="none" stroke="#000000" d="M 208 209 C 208 199.6111584 245.8319344 192 292.5 192 C 339.1680656 192 377 199.6111584 377 209 C 377 218.3888416 339.1680656 226 292.5 226 C 245.8319344 226 208 218.3888416 208 209 Z" stroke-miterlimit="10"/></g><g transform="translate(-38,-78) scale(1,1)"><g><path fill="none" stroke="none"/><text fill="#000000" stroke="none" font-family="Arial" font-size="13px" font-style="normal" font-weight="bold" text-decoration="none" x="240.839599609375" y="216">Contact Examiner</text></g></g><g transform="translate(-38,-78) scale(1,1)"><path fill="#ffffff" stroke="none" d="M 729.0865964133523 225.68 C 729.0865964133523 220.886167936 732.9724387382977 217 737.765869140625 217 C 742.5592995429523 217 746.4451418678977 220.886167936 746.4451418678977 225.68 C 746.4451418678977 230.47383206400002 742.5592995429523 234.36 737.765869140625 234.36 C 732.9724387382977 234.36 729.0865964133523 230.47383206400002 729.0865964133523 225.68 Z"/></g><g transform="translate(-38,-78) scale(1,1)"><path fill="none" stroke="#000000" d="M 729.0865964133523 225.68 C 729.0865964133523 220.886167936 732.9724387382977 217 737.765869140625 217 C 742.5592995429523 217 746.4451418678977 220.886167936 746.4451418678977 225.68 C 746.4451418678977 230.47383206400002 742.5592995429523 234.36 737.765869140625 234.36 C 732.9724387382977 234.36 729.0865964133523 230.47383206400002 729.0865964133523 225.68 Z" stroke-miterlimit="10"/></g><g transform="translate(-38,-78) scale(1,1)"><path fill="none" stroke="#000000" d="M 737.765869140625 234.36 L 737.765869140625 251.64" stroke-miterlimit="10"/></g><g transform="translate(-38,-78) scale(1,1)"><path fill="none" stroke="#000000" d="M 728.5760509588068 240.84 L 746.9556873224432 240.84" stroke-miterlimit="10"/></g><g transform="translate(-38,-78) scale(1,1)"><path fill="none" stroke="#000000" d="M 737.765869140625 251.64 L 725.0022327769886 269" stroke-miterlimit="10"/></g><g transform="translate(-38,-78) scale(1,1)"><path fill="none" stroke="#000000" d="M 737.765869140625 251.64 L 750.5295055042614 269" stroke-miterlimit="10"/></g><g transform="translate(-38,-78) scale(1,1)"><g><path fill="none" stroke="none"/><text fill="#000000" stroke="none" font-family="Arial" font-size="13px" font-style="normal" font-weight="bold" text-decoration="none" x="710.312255859375" y="289.5">Examiner</text></g></g><g transform="translate(-38,-78) scale(1,1)"><path fill="#C0C0C0" stroke="none" d="M 207 336 C 207 326.6111584 243.4887888 319 288.5 319 C 333.5112112 319 370 326.6111584 370 336 C 370 345.3888416 333.5112112 353 288.5 353 C 243.4887888 353 207 345.3888416 207 336 Z" opacity="0.2"/></g><g transform="translate(-38,-78) scale(1,1)"><path fill="#ffffff" stroke="none" d="M 200 329 C 200 319.6111584 236.4887888 312 281.5 312 C 326.5112112 312 363 319.6111584 363 329 C 363 338.3888416 326.5112112 346 281.5 346 C 236.4887888 346 200 338.3888416 200 329 Z"/></g><g transform="translate(-38,-78) scale(1,1)"><path fill="none" stroke="#000000" d="M 200 329 C 200 319.6111584 236.4887888 312 281.5 312 C 326.5112112 312 363 319.6111584 363 329 C 363 338.3888416 326.5112112 346 281.5 346 C 236.4887888 346 200 338.3888416 200 329 Z" stroke-miterlimit="10"/></g><g transform="translate(-38,-78) scale(1,1)"><g><path fill="none" stroke="none"/><text fill="#000000" stroke="none" font-family="Arial" font-size="13px" font-style="normal" font-weight="bold" text-decoration="none" x="238.15185546875" y="336">Join classroom</text></g></g><g transform="translate(-38,-78) scale(1,1)"><path fill="#C0C0C0" stroke="none" d="M 183 168 C 183 158.6111584 232.4725296 151 293.5 151 C 354.5274704 151 404 158.6111584 404 168 C 404 177.3888416 354.5274704 185 293.5 185 C 232.4725296 185 183 177.3888416 183 168 Z" opacity="0.2"/></g><g transform="translate(-38,-78) scale(1,1)"><path fill="#ffffff" stroke="none" d="M 176 161 C 176 151.6111584 225.4725296 144 286.5 144 C 347.5274704 144 397 151.6111584 397 161 C 397 170.3888416 347.5274704 178 286.5 178 C 225.4725296 178 176 170.3888416 176 161 Z"/></g><g transform="translate(-38,-78) scale(1,1)"><path fill="none" stroke="#000000" d="M 176 161 C 176 151.6111584 225.4725296 144 286.5 144 C 347.5274704 144 397 151.6111584 397 161 C 397 170.3888416 347.5274704 178 286.5 178 C 225.4725296 178 176 170.3888416 176 161 Z" stroke-miterlimit="10"/></g><g transform="translate(-38,-78) scale(1,1)"><g><path fill="none" stroke="none"/><text fill="#000000" stroke="none" font-family="Arial" font-size="13px" font-style="normal" font-weight="bold" text-decoration="none" x="218.935546875" y="168">Start preconfigured test</text></g></g><g transform="translate(-38,-78) scale(1,1)"><path fill="#C0C0C0" stroke="none" d="M 343 304 C 343 294.6111584 403.6654096 287 478.5 287 C 553.3345904 287 614 294.6111584 614 304 C 614 313.3888416 553.3345904 321 478.5 321 C 403.6654096 321 343 313.3888416 343 304 Z" opacity="0.2"/></g><g transform="translate(-38,-78) scale(1,1)"><path fill="#ffffff" stroke="none" d="M 336 297 C 336 287.6111584 396.6654096 280 471.5 280 C 546.3345904 280 607 287.6111584 607 297 C 607 306.3888416 546.3345904 314 471.5 314 C 396.6654096 314 336 306.3888416 336 297 Z"/></g><g transform="translate(-38,-78) scale(1,1)"><path fill="none" stroke="#000000" d="M 336 297 C 336 287.6111584 396.6654096 280 471.5 280 C 546.3345904 280 607 287.6111584 607 297 C 607 306.3888416 546.3345904 314 471.5 314 C 396.6654096 314 336 306.3888416 336 297 Z" stroke-miterlimit="10"/></g><g transform="translate(-38,-78) scale(1,1)"><g><path fill="none" stroke="none"/><text fill="#000000" stroke="none" font-family="Arial" font-size="13px" font-style="normal" font-weight="bold" text-decoration="none" x="386.603271484375" y="304">Invite Examinee to classroom</text></g></g><g transform="translate(-38,-78) scale(1,1)"><path fill="none" stroke="#000000" d="M 119 238 L 247 179" stroke-miterlimit="10"/></g><g transform="translate(-38,-78) scale(1,1)"><path fill="none" stroke="#000000" d="M 119 247 L 210 227" stroke-miterlimit="10"/></g><g transform="translate(-38,-78) scale(1,1)"><path fill="none" stroke="#000000" d="M 119 257 L 191 260" stroke-miterlimit="10"/></g><g transform="translate(-38,-78) scale(1,1)"><path fill="none" stroke="#000000" d="M 119 269 L 233 311" stroke-miterlimit="10"/></g><g transform="translate(-38,-78) scale(1,1)"><path fill="none" stroke="#000000" d="M 703 228 L 601 147" stroke-miterlimit="10"/></g><g transform="translate(-38,-78) scale(1,1)"><path fill="none" stroke="#000000" d="M 703 247 L 592 219" stroke-miterlimit="10"/></g><g transform="translate(-38,-78) scale(1,1)"><path fill="none" stroke="#000000" d="M 703 260 L 585 279" stroke-miterlimit="10"/></g><g transform="translate(-38,-78) scale(1,1)"><path fill="#C0C0C0" stroke="none" d="M 511 136 C 511 126.6111584 544.3547824 119 585.5 119 C 626.6452176 119 660 126.6111584 660 136 C 660 145.3888416 626.6452176 153 585.5 153 C 544.3547824 153 511 145.3888416 511 136 Z" opacity="0.2"/></g><g transform="translate(-38,-78) scale(1,1)"><path fill="#ffffff" stroke="none" d="M 504 129 C 504 119.6111584 537.3547824 112 578.5 112 C 619.6452176 112 653 119.6111584 653 129 C 653 138.3888416 619.6452176 146 578.5 146 C 537.3547824 146 504 138.3888416 504 129 Z"/></g><g transform="translate(-38,-78) scale(1,1)"><path fill="none" stroke="#000000" d="M 504 129 C 504 119.6111584 537.3547824 112 578.5 112 C 619.6452176 112 653 119.6111584 653 129 C 653 138.3888416 619.6452176 146 578.5 146 C 537.3547824 146 504 138.3888416 504 129 Z" stroke-miterlimit="10"/></g><g transform="translate(-38,-78) scale(1,1)"><g><path fill="none" stroke="none"/><text fill="#000000" stroke="none" font-family="Arial" font-size="13px" font-style="normal" font-weight="bold" text-decoration="none" x="532.977783203125" y="136">Create new test</text></g></g><g transform="translate(-38,-78) scale(1,1)"><path fill="#C0C0C0" stroke="none" d="M 391 208 C 391 198.6111584 451.8892672 191 527 191 C 602.1107328 191 663 198.6111584 663 208 C 663 217.3888416 602.1107328 225 527 225 C 451.8892672 225 391 217.3888416 391 208 Z" opacity="0.2"/></g><g transform="translate(-38,-78) scale(1,1)"><path fill="#ffffff" stroke="none" d="M 384 201 C 384 191.6111584 444.8892672 184 520 184 C 595.1107328 184 656 191.6111584 656 201 C 656 210.3888416 595.1107328 218 520 218 C 444.8892672 218 384 210.3888416 384 201 Z"/></g><g transform="translate(-38,-78) scale(1,1)"><path fill="none" stroke="#000000" d="M 384 201 C 384 191.6111584 444.8892672 184 520 184 C 595.1107328 184 656 191.6111584 656 201 C 656 210.3888416 595.1107328 218 520 218 C 444.8892672 218 384 210.3888416 384 201 Z" stroke-miterlimit="10"/></g><g transform="translate(-38,-78) scale(1,1)"><g><path fill="none" stroke="none"/><text fill="#000000" stroke="none" font-family="Arial" font-size="13px" font-style="normal" font-weight="bold" text-decoration="none" x="435.953857421875" y="208">View classroom score history</text></g></g><g transform="translate(-38,-78) scale(1,1)"><path fill="#C0C0C0" stroke="none" d="M 351 368 C 351 358.6111584 421.0674288 351 507.5 351 C 593.9325712 351 664 358.6111584 664 368 C 664 377.3888416 593.9325712 385 507.5 385 C 421.0674288 385 351 377.3888416 351 368 Z" opacity="0.2"/></g><g transform="translate(-38,-78) scale(1,1)"><path fill="#ffffff" stroke="none" d="M 344 361 C 344 351.6111584 414.0674288 344 500.5 344 C 586.9325712 344 657 351.6111584 657 361 C 657 370.3888416 586.9325712 378 500.5 378 C 414.0674288 378 344 370.3888416 344 361 Z"/></g><g transform="translate(-38,-78) scale(1,1)"><path fill="none" stroke="#000000" d="M 344 361 C 344 351.6111584 414.0674288 344 500.5 344 C 586.9325712 344 657 351.6111584 657 361 C 657 370.3888416 586.9325712 378 500.5 378 C 414.0674288 378 344 370.3888416 344 361 Z" stroke-miterlimit="10"/></g><g transform="translate(-38,-78) scale(1,1)"><g><path fill="none" stroke="none"/><text fill="#000000" stroke="none" font-family="Arial" font-size="13px" font-style="normal" font-weight="bold" text-decoration="none" x="402.222412109375" y="368">Send announcments to classroom</text></g></g><g transform="translate(-38,-78) scale(1,1)"><path fill="none" stroke="#000000" d="M 703 270 L 540 343" stroke-miterlimit="10"/></g></g></svg>