<svg version="1.1" xmlns="http://www.w3.org/2000/svg" xmlns:xlink="http://www.w3.org/1999/xlink" width="692.369140625" height="499"><defs/><g><text fill="#eeeeee" stroke="none" font-family="Arial" font-size="24px" font-style="normal" font-weight="normal" text-decoration="none" x="0" y="0"></text><text fill="#eeeeee" stroke="none" font-family="Arial" font-size="24px" font-style="normal" font-weight="normal" text-decoration="none" x="0" y="30"></text><text fill="#eeeeee" stroke="none" font-family="Arial" font-size="24px" font-style="normal" font-weight="normal" text-decoration="none" x="0" y="60"></text><text fill="#eeeeee" stroke="none" font-family="Arial" font-size="24px" font-style="normal" font-weight="normal" text-decoration="none" x="0" y="90"></text><text fill="#eeeeee" stroke="none" font-family="Arial" font-size="24px" font-style="normal" font-weight="normal" text-decoration="none" x="0" y="120"></text><text fill="#eeeeee" stroke="none" font-family="Arial" font-size="24px" font-style="normal" font-weight="normal" text-decoration="none" x="0" y="150"></text><text fill="#eeeeee" stroke="none" font-family="Arial" font-size="24px" font-style="normal" font-weight="normal" text-decoration="none" x="0" y="180"></text><text fill="#eeeeee" stroke="none" font-family="Arial" font-size="24px" font-style="normal" font-weight="normal" text-decoration="none" x="0" y="210"></text><text fill="#eeeeee" stroke="none" font-family="Arial" font-size="24px" font-style="normal" font-weight="normal" text-decoration="none" x="0" y="240"></text><text fill="#eeeeee" stroke="none" font-family="Arial" font-size="24px" font-style="normal" font-weight="normal" text-decoration="none" x="0" y="270"></text><text fill="#eeeeee" stroke="none" font-family="Arial" font-size="24px" font-style="normal" font-weight="normal" text-decoration="none" x="0" y="300"></text><text fill="#eeeeee" stroke="none" font-family="Arial" font-size="24px" font-style="normal" font-weight="normal" text-decoration="none" x="0" y="330"></text><text fill="#eeeeee" stroke="none" font-family="Arial" font-size="24px" font-style="normal" font-weight="normal" text-decoration="none" x="0" y="360"></text><text fill="#eeeeee" stroke="none" font-family="Arial" font-size="24px" font-style="normal" font-weight="normal" text-decoration="none" x="0" y="390"></text><text fill="#eeeeee" stroke="none" font-family="Arial" font-size="24px" font-style="normal" font-weight="normal" text-decoration="none" x="0" y="420"></text><text fill="#eeeeee" stroke="none" font-family="Arial" font-size="24px" font-style="normal" font-weight="normal" text-decoration="none" x="0" y="450"></text><text fill="#eeeeee" stroke="none" font-family="Arial" font-size="24px" font-style="normal" font-weight="normal" text-decoration="none" x="0" y="480"></text><text fill="#eeeeee" stroke="none" font-family="Arial" font-size="24px" font-style="normal" font-weight="normal" text-decoration="none" x="200" y="0"></text><text fill="#eeeeee" stroke="none" font-family="Arial" font-size="24px" font-style="normal" font-weight="normal" text-decoration="none" x="200" y="30"></text><text fill="#eeeeee" stroke="none" font-family="Arial" font-size="24px" font-style="normal" font-weight="normal" text-decoration="none" x="200" y="60"></text><text fill="#eeeeee" stroke="none" font-family="Arial" font-size="24px" font-style="normal" font-weight="normal" text-decoration="none" x="200" y="90"></text><text fill="#eeeeee" stroke="none" font-family="Arial" font-size="24px" font-style="normal" font-weight="normal" text-decoration="none" x="200" y="120"></text><text fill="#eeeeee" stroke="none" font-family="Arial" font-size="24px" font-style="normal" font-weight="normal" text-decoration="none" x="200" y="150"></text><text fill="#eeeeee" stroke="none" font-family="Arial" font-size="24px" font-style="normal" font-weight="normal" text-decoration="none" x="200" y="180"></text><text fill="#eeeeee" stroke="none" font-family="Arial" font-size="24px" font-style="normal" font-weight="normal" text-decoration="none" x="200" y="210"></text><text fill="#eeeeee" stroke="none" font-family="Arial" font-size="24px" font-style="normal" font-weight="normal" text-decoration="none" x="200" y="240"></text><text fill="#eeeeee" stroke="none" font-family="Arial" font-size="24px" font-style="normal" font-weight="normal" text-decoration="none" x="200" y="270"></text><text fill="#eeeeee" stroke="none" font-family="Arial" font-size="24px" font-style="normal" font-weight="normal" text-decoration="none" x="200" y="300"></text><text fill="#eeeeee" stroke="none" font-family="Arial" font-size="24px" font-style="normal" font-weight="normal" text-decoration="none" x="200" y="330"></text><text fill="#eeeeee" stroke="none" font-family="Arial" font-size="24px" font-style="normal" font-weight="normal" text-decoration="none" x="200" y="360"></text><text fill="#eeeeee" stroke="none" font-family="Arial" font-size="24px" font-style="normal" font-weight="normal" text-decoration="none" x="200" y="390"></text><text fill="#eeeeee" stroke="none" font-family="Arial" font-size="24px" font-style="normal" font-weight="normal" text-decoration="none" x="200" y="420"></text><text fill="#eeeeee" stroke="none" font-family="Arial" font-size="24px" font-style="normal" font-weight="normal" text-decoration="none" x="200" y="450"></text><text fill="#eeeeee" stroke="none" font-family="Arial" font-size="24px" font-style="normal" font-weight="normal" text-decoration="none" x="200" y="480"></text><text fill="#eeeeee" stroke="none" font-family="Arial" font-size="24px" font-style="normal" font-weight="normal" text-decoration="none" x="400" y="0"></text><text fill="#eeeeee" stroke="none" font-family="Arial" font-size="24px" font-style="normal" font-weight="normal" text-decoration="none" x="400" y="30"></text><text fill="#eeeeee" stroke="none" font-family="Arial" font-size="24px" font-style="normal" font-weight="normal" text-decoration="none" x="400" y="60"></text><text fill="#eeeeee" stroke="none" font-family="Arial" font-size="24px" font-style="normal" font-weight="normal" text-decoration="none" x="400" y="90"></text><text fill="#eeeeee" stroke="none" font-family="Arial" font-size="24px" font-style="normal" font-weight="normal" text-decoration="none" x="400" y="120"></text><text fill="#eeeeee" stroke="none" font-family="Arial" font-size="24px" font-style="normal" font-weight="normal" text-decoration="none" x="400" y="150"></text><text fill="#eeeeee" stroke="none" font-family="Arial" font-size="24px" font-style="normal" font-weight="normal" text-decoration="none" x="400" y="180"></text><text fill="#eeeeee" stroke="none" font-family="Arial" font-size="24px" font-style="normal" font-weight="normal" text-decoration="none" x="400" y="210"></text><text fill="#eeeeee" stroke="none" font-family="Arial" font-size="24px" font-style="normal" font-weight="normal" text-decoration="none" x="400" y="240"></text><text fill="#eeeeee" stroke="none" font-family="Arial" font-size="24px" font-style="normal" font-weight="normal" text-decoration="none" x="400" y="270"></text><text fill="#eeeeee" stroke="none" font-family="Arial" font-size="24px" font-style="normal" font-weight="normal" text-decoration="none" x="400" y="300"></text><text fill="#eeeeee" stroke="none" font-family="Arial" font-size="24px" font-style="normal" font-weight="normal" text-decoration="none" x="400" y="330"></text><text fill="#eeeeee" stroke="none" font-family="Arial" font-size="24px" font-style="normal" font-weight="normal" text-decoration="none" x="400" y="360"></text><text fill="#eeeeee" stroke="none" font-family="Arial" font-size="24px" font-style="normal" font-weight="normal" text-decoration="none" x="400" y="390"></text><text fill="#eeeeee" stroke="none" font-family="Arial" font-size="24px" font-style="normal" font-weight="normal" text-decoration="none" x="400" y="420"></text><text fill="#eeeeee" stroke="none" font-family="Arial" font-size="24px" font-style="normal" font-weight="normal" text-decoration="none" x="400" y="450"></text><text fill="#eeeeee" stroke="none" font-family="Arial" font-size="24px" font-style="normal" font-weight="normal" text-decoration="none" x="400" y="480"></text><text fill="#eeeeee" stroke="none" font-family="Arial" font-size="24px" font-style="normal" font-weight="normal" text-decoration="none" x="600" y="0"></text><text fill="#eeeeee" stroke="none" font-family="Arial" font-size="24px" font-style="normal" font-weight="normal" text-decoration="none" x="600" y="30"></text><text fill="#eeeeee" stroke="none" font-family="Arial" font-size="24px" font-style="normal" font-weight="normal" text-decoration="none" x="600" y="60"></text><text fill="#eeeeee" stroke="none" font-family="Arial" font-size="24px" font-style="normal" font-weight="normal" text-decoration="none" x="600" y="90"></text><text fill="#eeeeee" stroke="none" font-family="Arial" font-size="24px" font-style="normal" font-weight="normal" text-decoration="none" x="600" y="120"></text><text fill="#eeeeee" stroke="none" font-family="Arial" font-size="24px" font-style="normal" font-weight="normal" text-decoration="none" x="600" y="150"></text><text fill="#eeeeee" stroke="none" font-family="Arial" font-size="24px" font-style="normal" font-weight="normal" text-decoration="none" x="600" y="180"></text><text fill="#eeeeee" stroke="none" font-family="Arial" font-size="24px" font-style="normal" font-weight="normal" text-decoration="none" x="600" y="210"></text><text fill="#eeeeee" stroke="none" font-family="Arial" font-size="24px" font-style="normal" font-weight="normal" text-decoration="none" x="600" y="240"></text><text fill="#eeeeee" stroke="none" font-family="Arial" font-size="24px" font-style="normal" font-weight="normal" text-decoration="none" x="600" y="270"></text><text fill="#eeeeee" stroke="none" font-family="Arial" font-size="24px" font-style="normal" font-weight="normal" text-decoration="none" x="600" y="300"></text><text fill="#eeeeee" stroke="none" font-family="Arial" font-size="24px" font-style="normal" font-weight="normal" text-decoration="none" x="600" y="330"></text><text fill="#eeeeee" stroke="none" font-family="Arial" font-size="24px" font-style="normal" font-weight="normal" text-decoration="none" x="600" y="360"></text><text fill="#eeeeee" stroke="none" font-family="Arial" font-size="24px" font-style="normal" font-weight="normal" text-decoration="none" x="600" y="390"></text><text fill="#eeeeee" stroke="none" font-family="Arial" font-size="24px" font-style="normal" font-weight="normal" text-decoration="none" x="600" y="420"></text><text fill="#eeeeee" stroke="none" font-family="Arial" font-size="24px" font-style="normal" font-weight="normal" text-decoration="none" x="600" y="450"></text><text fill="#eeeeee" stroke="none" font-family="Arial" font-size="24px" font-style="normal" font-weight="normal" text-decoration="none" x="600" y="480"></text><g transform="translate(-78,-38) scale(1,1)"><path fill="#C0C0C0" stroke="none" d="M 95 65 L 572 65 L 572 533 L 95 533" opacity="0.2"/></g><g transform="translate(-78,-38) scale(1,1)"><path fill="#C0C0C0" stroke="none" d="M 95 65 L 105 55 L 582 55 L 572 65" opacity="0.2"/></g><g transform="translate(-78,-38) scale(1,1)"><path fill="#C0C0C0" stroke="none" d="M 582 55 L 572 65 L 572 533 L 582 523" opacity="0.2"/></g><g transform="translate(-78,-38) scale(1,1)"><path fill="#ffffff" stroke="none" d="M 88 58 L 565 58 L 565 526 L 88 526"/></g><g transform="translate(-78,-38) scale(1,1)"><path fill="#ffffff" stroke="none" d="M 88 58 L 98 48 L 575 48 L 565 58"/></g><g transform="translate(-78,-38) scale(1,1)"><path fill="#ffffff" stroke="none" d="M 575 48 L 565 58 L 565 526 L 575 516"/></g><g transform="translate(-78,-38) scale(1,1)"><path fill="none" stroke="#000000" d="M 88 58 L 565 58 L 565 526 L 88 526 L 88 58" stroke-miterlimit="10"/></g><g transform="translate(-78,-38) scale(1,1)"><path fill="none" stroke="#000000" d="M 88 58 L 98 48 L 575 48 L 565 58 L 88 58" stroke-miterlimit="10"/></g><g transform="translate(-78,-38) scale(1,1)"><path fill="none" stroke="#000000" d="M 575 48 L 565 58 L 565 526 L 575 516 L 575 48" stroke-miterlimit="10"/></g><g transform="translate(-78,-38) scale(1,1)"><g><path fill="none" stroke="none"/><text fill="#000000" stroke="none" font-family="Arial" font-size="13px" font-style="normal" font-weight="bold" text-decoration="none" x="306.766845703125" y="77.5">Nodejs</text></g></g><g transform="translate(-78,-38) scale(1,1)"><path fill="#C0C0C0" stroke="none" d="M 119 105 L 532 105 L 532 509 L 119 509" opacity="0.2"/></g><g transform="translate(-78,-38) scale(1,1)"><path fill="#C0C0C0" stroke="none" d="M 119 105 L 129 95 L 542 95 L 532 105" opacity="0.2"/></g><g transform="translate(-78,-38) scale(1,1)"><path fill="#C0C0C0" stroke="none" d="M 542 95 L 532 105 L 532 509 L 542 499" opacity="0.2"/></g><g transform="translate(-78,-38) scale(1,1)"><path fill="#ffffff" stroke="none" d="M 112 98 L 525 98 L 525 502 L 112 502"/></g><g transform="translate(-78,-38) scale(1,1)"><path fill="#ffffff" stroke="none" d="M 112 98 L 122 88 L 535 88 L 525 98"/></g><g transform="translate(-78,-38) scale(1,1)"><path fill="#ffffff" stroke="none" d="M 535 88 L 525 98 L 525 502 L 535 492"/></g><g transform="translate(-78,-38) scale(1,1)"><path fill="none" stroke="#000000" d="M 112 98 L 525 98 L 525 502 L 112 502 L 112 98" stroke-miterlimit="10"/></g><g transform="translate(-78,-38) scale(1,1)"><path fill="none" stroke="#000000" d="M 112 98 L 122 88 L 535 88 L 525 98 L 112 98" stroke-miterlimit="10"/></g><g transform="translate(-78,-38) scale(1,1)"><path fill="none" stroke="#000000" d="M 535 88 L 525 98 L 525 502 L 535 492 L 535 88" stroke-miterlimit="10"/></g><g transform="translate(-78,-38) scale(1,1)"><g><path fill="none" stroke="none"/><text fill="#000000" stroke="none" font-family="Arial" font-size="13px" font-style="normal" font-weight="bold" text-decoration="none" x="295.52001953125" y="117.5">Express</text></g></g><g transform="translate(-78,-38) scale(1,1)"><path fill="#C0C0C0" stroke="none" d="M 135 153 L 292 153 L 292 470 L 135 470" opacity="0.2"/></g><g transform="translate(-78,-38) scale(1,1)"><path fill="#C0C0C0" stroke="none" d="M 135 153 L 145 143 L 302 143 L 292 153" opacity="0.2"/></g><g transform="translate(-78,-38) scale(1,1)"><path fill="#C0C0C0" stroke="none" d="M 302 143 L 292 153 L 292 470 L 302 460" opacity="0.2"/></g><g transform="translate(-78,-38) scale(1,1)"><path fill="#ffffff" stroke="none" d="M 128 146 L 285 146 L 285 463 L 128 463"/></g><g transform="translate(-78,-38) scale(1,1)"><path fill="#ffffff" stroke="none" d="M 128 146 L 138 136 L 295 136 L 285 146"/></g><g transform="translate(-78,-38) scale(1,1)"><path fill="#ffffff" stroke="none" d="M 295 136 L 285 146 L 285 463 L 295 453"/></g><g transform="translate(-78,-38) scale(1,1)"><path fill="none" stroke="#000000" d="M 128 146 L 285 146 L 285 463 L 128 463 L 128 146" stroke-miterlimit="10"/></g><g transform="translate(-78,-38) scale(1,1)"><path fill="none" stroke="#000000" d="M 128 146 L 138 136 L 295 136 L 285 146 L 128 146" stroke-miterlimit="10"/></g><g transform="translate(-78,-38) scale(1,1)"><path fill="none" stroke="#000000" d="M 295 136 L 285 146 L 285 463 L 295 453 L 295 136" stroke-miterlimit="10"/></g><g transform="translate(-78,-38) scale(1,1)"><g><path fill="none" stroke="none"/><text fill="#000000" stroke="none" font-family="Arial" font-size="13px" font-style="normal" font-weight="bold" text-decoration="none" x="166.17822265625" y="165.5">User Interface</text></g></g><g transform="translate(-78,-38) scale(1,1)"><rect fill="#C0C0C0" stroke="none" x="161" y="199" width="98.44091796875" height="44" opacity="0.2"/></g><g transform="translate(-78,-38) scale(1,1)"><rect fill="#ffffff" stroke="none" x="154" y="192" width="98.44091796875" height="44"/></g><g transform="translate(-78,-38) scale(1,1)"><path fill="none" stroke="#000000" d="M 154 192 L 252.44091796875 192 L 252.44091796875 236 L 154 236 L 154 192 Z Z" stroke-miterlimit="10"/></g><g transform="translate(-78,-38) scale(1,1)"><rect fill="#ffffff" stroke="none" x="144" y="199" width="20" height="10"/></g><g transform="translate(-78,-38) scale(1,1)"><path fill="none" stroke="#000000" d="M 144 199 L 164 199 L 164 209 L 144 209 L 144 199 Z Z" stroke-miterlimit="10"/></g><g transform="translate(-78,-38) scale(1,1)"><rect fill="#ffffff" stroke="none" x="144" y="219" width="20" height="10"/></g><g transform="translate(-78,-38) scale(1,1)"><path fill="none" stroke="#000000" d="M 144 219 L 164 219 L 164 229 L 144 229 L 144 219 Z Z" stroke-miterlimit="10"/></g><g transform="translate(-78,-38) scale(1,1)"><g><path fill="none" stroke="none"/><text fill="#000000" stroke="none" font-family="Arial" font-size="13px" font-style="normal" font-weight="bold" text-decoration="none" x="174.977783203125" y="211.5">Handlebars</text></g></g><g transform="translate(-78,-38) scale(1,1)"><rect fill="#C0C0C0" stroke="none" x="161" y="319" width="98.44091796875" height="44" opacity="0.2"/></g><g transform="translate(-78,-38) scale(1,1)"><rect fill="#ffffff" stroke="none" x="154" y="312" width="98.44091796875" height="44"/></g><g transform="translate(-78,-38) scale(1,1)"><path fill="none" stroke="#000000" d="M 154 312 L 252.44091796875 312 L 252.44091796875 356 L 154 356 L 154 312 Z Z" stroke-miterlimit="10"/></g><g transform="translate(-78,-38) scale(1,1)"><rect fill="#ffffff" stroke="none" x="144" y="319" width="20" height="10"/></g><g transform="translate(-78,-38) scale(1,1)"><path fill="none" stroke="#000000" d="M 144 319 L 164 319 L 164 329 L 144 329 L 144 319 Z Z" stroke-miterlimit="10"/></g><g transform="translate(-78,-38) scale(1,1)"><rect fill="#ffffff" stroke="none" x="144" y="339" width="20" height="10"/></g><g transform="translate(-78,-38) scale(1,1)"><path fill="none" stroke="#000000" d="M 144 339 L 164 339 L 164 349 L 144 349 L 144 339 Z Z" stroke-miterlimit="10"/></g><g transform="translate(-78,-38) scale(1,1)"><g><path fill="none" stroke="none"/><text fill="#000000" stroke="none" font-family="Arial" font-size="13px" font-style="normal" font-weight="bold" text-decoration="none" x="180.398681640625" y="331.5">Bootstrap</text></g></g><g transform="translate(-78,-38) scale(1,1)"><rect fill="#C0C0C0" stroke="none" x="161" y="255" width="98.44091796875" height="44" opacity="0.2"/></g><g transform="translate(-78,-38) scale(1,1)"><rect fill="#ffffff" stroke="none" x="154" y="248" width="98.44091796875" height="44"/></g><g transform="translate(-78,-38) scale(1,1)"><path fill="none" stroke="#000000" d="M 154 248 L 252.44091796875 248 L 252.44091796875 292 L 154 292 L 154 248 Z Z" stroke-miterlimit="10"/></g><g transform="translate(-78,-38) scale(1,1)"><rect fill="#ffffff" stroke="none" x="144" y="255" width="20" height="10"/></g><g transform="translate(-78,-38) scale(1,1)"><path fill="none" stroke="#000000" d="M 144 255 L 164 255 L 164 265 L 144 265 L 144 255 Z Z" stroke-miterlimit="10"/></g><g transform="translate(-78,-38) scale(1,1)"><rect fill="#ffffff" stroke="none" x="144" y="275" width="20" height="10"/></g><g transform="translate(-78,-38) scale(1,1)"><path fill="none" stroke="#000000" d="M 144 275 L 164 275 L 164 285 L 144 285 L 144 275 Z Z" stroke-miterlimit="10"/></g><g transform="translate(-78,-38) scale(1,1)"><g><path fill="none" stroke="none"/><text fill="#000000" stroke="none" font-family="Arial" font-size="13px" font-style="normal" font-weight="bold" text-decoration="none" x="189.075927734375" y="267.5">jQuery</text></g></g><g transform="translate(-78,-38) scale(1,1)"><rect fill="#C0C0C0" stroke="none" x="376" y="319" width="98.44091796875" height="44" opacity="0.2"/></g><g transform="translate(-78,-38) scale(1,1)"><rect fill="#ffffff" stroke="none" x="369" y="312" width="98.44091796875" height="44"/></g><g transform="translate(-78,-38) scale(1,1)"><path fill="none" stroke="#000000" d="M 369 312 L 467.44091796875 312 L 467.44091796875 356 L 369 356 L 369 312 Z Z" stroke-miterlimit="10"/></g><g transform="translate(-78,-38) scale(1,1)"><rect fill="#ffffff" stroke="none" x="359" y="319" width="20" height="10"/></g><g transform="translate(-78,-38) scale(1,1)"><path fill="none" stroke="#000000" d="M 359 319 L 379 319 L 379 329 L 359 329 L 359 319 Z Z" stroke-miterlimit="10"/></g><g transform="translate(-78,-38) scale(1,1)"><rect fill="#ffffff" stroke="none" x="359" y="339" width="20" height="10"/></g><g transform="translate(-78,-38) scale(1,1)"><path fill="none" stroke="#000000" d="M 359 339 L 379 339 L 379 349 L 359 349 L 359 339 Z Z" stroke-miterlimit="10"/></g><g transform="translate(-78,-38) scale(1,1)"><g><path fill="none" stroke="none"/><text fill="#000000" stroke="none" font-family="Arial" font-size="13px" font-style="normal" font-weight="bold" text-decoration="none" x="387.81640625" y="331.5">body-Parser</text></g></g><g transform="translate(-78,-38) scale(1,1)"><rect fill="#C0C0C0" stroke="none" x="376" y="431" width="98.44091796875" height="44" opacity="0.2"/></g><g transform="translate(-78,-38) scale(1,1)"><rect fill="#ffffff" stroke="none" x="369" y="424" width="98.44091796875" height="44"/></g><g transform="translate(-78,-38) scale(1,1)"><path fill="none" stroke="#000000" d="M 369 424 L 467.44091796875 424 L 467.44091796875 468 L 369 468 L 369 424 Z Z" stroke-miterlimit="10"/></g><g transform="translate(-78,-38) scale(1,1)"><rect fill="#ffffff" stroke="none" x="359" y="431" width="20" height="10"/></g><g transform="translate(-78,-38) scale(1,1)"><path fill="none" stroke="#000000" d="M 359 431 L 379 431 L 379 441 L 359 441 L 359 431 Z Z" stroke-miterlimit="10"/></g><g transform="translate(-78,-38) scale(1,1)"><rect fill="#ffffff" stroke="none" x="359" y="451" width="20" height="10"/></g><g transform="translate(-78,-38) scale(1,1)"><path fill="none" stroke="#000000" d="M 359 451 L 379 451 L 379 461 L 359 461 L 359 451 Z Z" stroke-miterlimit="10"/></g><g transform="translate(-78,-38) scale(1,1)"><g><path fill="none" stroke="none"/><text fill="#000000" stroke="none" font-family="Arial" font-size="13px" font-style="normal" font-weight="bold" text-decoration="none" x="401.181396484375" y="443.5">Morgan</text></g></g><g transform="translate(-78,-38) scale(1,1)"><rect fill="#C0C0C0" stroke="none" x="376" y="151" width="122.33349609375" height="44" opacity="0.2"/></g><g transform="translate(-78,-38) scale(1,1)"><rect fill="#ffffff" stroke="none" x="369" y="144" width="122.33349609375" height="44"/></g><g transform="translate(-78,-38) scale(1,1)"><path fill="none" stroke="#000000" d="M 369 144 L 491.33349609375 144 L 491.33349609375 188 L 369 188 L 369 144 Z Z" stroke-miterlimit="10"/></g><g transform="translate(-78,-38) scale(1,1)"><rect fill="#ffffff" stroke="none" x="359" y="151" width="20" height="10"/></g><g transform="translate(-78,-38) scale(1,1)"><path fill="none" stroke="#000000" d="M 359 151 L 379 151 L 379 161 L 359 161 L 359 151 Z Z" stroke-miterlimit="10"/></g><g transform="translate(-78,-38) scale(1,1)"><rect fill="#ffffff" stroke="none" x="359" y="171" width="20" height="10"/></g><g transform="translate(-78,-38) scale(1,1)"><path fill="none" stroke="#000000" d="M 359 171 L 379 171 L 379 181 L 359 181 L 359 171 Z Z" stroke-miterlimit="10"/></g><g transform="translate(-78,-38) scale(1,1)"><g><path fill="none" stroke="none"/><text fill="#000000" stroke="none" font-family="Arial" font-size="13px" font-style="normal" font-weight="bold" text-decoration="none" x="388.20361328125" y="163.5">express-session</text></g></g><g transform="translate(-78,-38) scale(1,1)"><rect fill="#C0C0C0" stroke="none" x="376" y="207" width="115.82080078125" height="44" opacity="0.2"/></g><g transform="translate(-78,-38) scale(1,1)"><rect fill="#ffffff" stroke="none" x="369" y="200" width="115.82080078125" height="44"/></g><g transform="translate(-78,-38) scale(1,1)"><path fill="none" stroke="#000000" d="M 369 200 L 484.82080078125 200 L 484.82080078125 244 L 369 244 L 369 200 Z Z" stroke-miterlimit="10"/></g><g transform="translate(-78,-38) scale(1,1)"><rect fill="#ffffff" stroke="none" x="359" y="207" width="20" height="10"/></g><g transform="translate(-78,-38) scale(1,1)"><path fill="none" stroke="#000000" d="M 359 207 L 379 207 L 379 217 L 359 217 L 359 207 Z Z" stroke-miterlimit="10"/></g><g transform="translate(-78,-38) scale(1,1)"><rect fill="#ffffff" stroke="none" x="359" y="227" width="20" height="10"/></g><g transform="translate(-78,-38) scale(1,1)"><path fill="none" stroke="#000000" d="M 359 227 L 379 227 L 379 237 L 359 237 L 359 227 Z Z" stroke-miterlimit="10"/></g><g transform="translate(-78,-38) scale(1,1)"><g><path fill="none" stroke="none"/><text fill="#000000" stroke="none" font-family="Arial" font-size="13px" font-style="normal" font-weight="bold" text-decoration="none" x="388.197265625" y="219.5">express-cookie</text></g></g><g transform="translate(-78,-38) scale(1,1)"><rect fill="#C0C0C0" stroke="none" x="376" y="375" width="98.44091796875" height="44" opacity="0.2"/></g><g transform="translate(-78,-38) scale(1,1)"><rect fill="#ffffff" stroke="none" x="369" y="368" width="98.44091796875" height="44"/></g><g transform="translate(-78,-38) scale(1,1)"><path fill="none" stroke="#000000" d="M 369 368 L 467.44091796875 368 L 467.44091796875 412 L 369 412 L 369 368 Z Z" stroke-miterlimit="10"/></g><g transform="translate(-78,-38) scale(1,1)"><rect fill="#ffffff" stroke="none" x="359" y="375" width="20" height="10"/></g><g transform="translate(-78,-38) scale(1,1)"><path fill="none" stroke="#000000" d="M 359 375 L 379 375 L 379 385 L 359 385 L 359 375 Z Z" stroke-miterlimit="10"/></g><g transform="translate(-78,-38) scale(1,1)"><rect fill="#ffffff" stroke="none" x="359" y="395" width="20" height="10"/></g><g transform="translate(-78,-38) scale(1,1)"><path fill="none" stroke="#000000" d="M 359 395 L 379 395 L 379 405 L 359 405 L 359 395 Z Z" stroke-miterlimit="10"/></g><g transform="translate(-78,-38) scale(1,1)"><g><path fill="none" stroke="none"/><text fill="#000000" stroke="none" font-family="Arial" font-size="13px" font-style="normal" font-weight="bold" text-decoration="none" x="389.990478515625" y="387.5">serve-static</text></g></g><g transform="translate(-78,-38) scale(1,1)"><rect fill="#C0C0C0" stroke="none" x="376" y="263" width="98.44091796875" height="44" opacity="0.2"/></g><g transform="translate(-78,-38) scale(1,1)"><rect fill="#ffffff" stroke="none" x="369" y="256" width="98.44091796875" height="44"/></g><g transform="translate(-78,-38) scale(1,1)"><path fill="none" stroke="#000000" d="M 369 256 L 467.44091796875 256 L 467.44091796875 300 L 369 300 L 369 256 Z Z" stroke-miterlimit="10"/></g><g transform="translate(-78,-38) scale(1,1)"><rect fill="#ffffff" stroke="none" x="359" y="263" width="20" height="10"/></g><g transform="translate(-78,-38) scale(1,1)"><path fill="none" stroke="#000000" d="M 359 263 L 379 263 L 379 273 L 359 273 L 359 263 Z Z" stroke-miterlimit="10"/></g><g transform="translate(-78,-38) scale(1,1)"><rect fill="#ffffff" stroke="none" x="359" y="283" width="20" height="10"/></g><g transform="translate(-78,-38) scale(1,1)"><path fill="none" stroke="#000000" d="M 359 283 L 379 283 L 379 293 L 359 293 L 359 283 Z Z" stroke-miterlimit="10"/></g><g transform="translate(-78,-38) scale(1,1)"><g><path fill="none" stroke="none"/><text fill="#000000" stroke="none" font-family="Arial" font-size="13px" font-style="normal" font-weight="bold" text-decoration="none" x="392.865966796875" y="275.5">Mongoose</text></g></g><g transform="translate(-78,-38) scale(1,1)"><path fill="#C0C0C0" stroke="none" d="M 687 289 L 756.369140625 289 L 756.369140625 322 L 687 322" opacity="0.2"/></g><g transform="translate(-78,-38) scale(1,1)"><path fill="#C0C0C0" stroke="none" d="M 687 289 L 697 279 L 766.369140625 279 L 756.369140625 289" opacity="0.2"/></g><g transform="translate(-78,-38) scale(1,1)"><path fill="#C0C0C0" stroke="none" d="M 766.369140625 279 L 756.369140625 289 L 756.369140625 322 L 766.369140625 312" opacity="0.2"/></g><g transform="translate(-78,-38) scale(1,1)"><path fill="#ffffff" stroke="none" d="M 680 282 L 749.369140625 282 L 749.369140625 315 L 680 315"/></g><g transform="translate(-78,-38) scale(1,1)"><path fill="#ffffff" stroke="none" d="M 680 282 L 690 272 L 759.369140625 272 L 749.369140625 282"/></g><g transform="translate(-78,-38) scale(1,1)"><path fill="#ffffff" stroke="none" d="M 759.369140625 272 L 749.369140625 282 L 749.369140625 315 L 759.369140625 305"/></g><g transform="translate(-78,-38) scale(1,1)"><path fill="none" stroke="#000000" d="M 680 282 L 749.369140625 282 L 749.369140625 315 L 680 315 L 680 282" stroke-miterlimit="10"/></g><g transform="translate(-78,-38) scale(1,1)"><path fill="none" stroke="#000000" d="M 680 282 L 690 272 L 759.369140625 272 L 749.369140625 282 L 680 282" stroke-miterlimit="10"/></g><g transform="translate(-78,-38) scale(1,1)"><path fill="none" stroke="#000000" d="M 759.369140625 272 L 749.369140625 282 L 749.369140625 315 L 759.369140625 305 L 759.369140625 272" stroke-miterlimit="10"/></g><g transform="translate(-78,-38) scale(1,1)"><g><path fill="none" stroke="none"/><text fill="#000000" stroke="none" font-family="Arial" font-size="13px" font-style="normal" font-weight="bold" text-decoration="none" x="686.280517578125" y="301.5">MongoDB</text></g></g><g transform="translate(-78,-38) scale(1,1)"><path fill="none" stroke="#000000" d="M 537 294 L 679 294" stroke-miterlimit="10"/></g><g transform="translate(-78,-38) scale(1,1)"><g><path fill="none" stroke="none"/><text fill="#000000" stroke="none" font-family="Arial" font-size="13px" font-style="normal" font-weight="normal" text-decoration="none" x="579.5" y="284.5">+MongooseAPI</text></g></g><g transform="translate(-78,-38) scale(1,1)"><path fill="#C0C0C0" stroke="none" d="M 190.009375 383 L 217.44937500000003 383 L 229.20937500000002 394.76 L 229.20937500000002 432 L 190.009375 432" opacity="0.2"/></g><g transform="translate(-78,-38) scale(1,1)"><path fill="#ffffff" stroke="none" d="M 183.00937499999998 376 L 210.449375 376 L 222.20937500000002 387.76 L 222.20937500000002 425 L 183.00937499999998 425"/></g><g transform="translate(-78,-38) scale(1,1)"><path fill="none" stroke="#000000" d="M 183.00937499999998 376 L 210.449375 376 L 222.20937500000002 387.76 L 222.20937500000002 425 L 183.00937499999998 425 L 183.00937499999998 376" stroke-miterlimit="10"/></g><g transform="translate(-78,-38) scale(1,1)"><path fill="none" stroke="#000000" d="M 210.449375 376 L 210.449375 387.76 L 222.20937500000002 387.76 L 210.449375 376" stroke-miterlimit="10"/></g><g transform="translate(-78,-38) scale(1,1)"><g><path fill="none" stroke="none"/><text fill="#000000" stroke="none" font-family="Arial" font-size="13px" font-style="normal" font-weight="bold" text-decoration="none" x="159.37548828125" y="444.5">Font Awesome</text></g></g></g></svg>