<svg version="1.1" xmlns="http://www.w3.org/2000/svg" xmlns:xlink="http://www.w3.org/1999/xlink" width="452" height="324"><defs/><g><text fill="#eeeeee" stroke="none" font-family="Arial" font-size="24px" font-style="normal" font-weight="normal" text-decoration="none" x="0" y="0"></text><text fill="#eeeeee" stroke="none" font-family="Arial" font-size="24px" font-style="normal" font-weight="normal" text-decoration="none" x="0" y="30"></text><text fill="#eeeeee" stroke="none" font-family="Arial" font-size="24px" font-style="normal" font-weight="normal" text-decoration="none" x="0" y="60"></text><text fill="#eeeeee" stroke="none" font-family="Arial" font-size="24px" font-style="normal" font-weight="normal" text-decoration="none" x="0" y="90"></text><text fill="#eeeeee" stroke="none" font-family="Arial" font-size="24px" font-style="normal" font-weight="normal" text-decoration="none" x="0" y="120"></text><text fill="#eeeeee" stroke="none" font-family="Arial" font-size="24px" font-style="normal" font-weight="normal" text-decoration="none" x="0" y="150"></text><text fill="#eeeeee" stroke="none" font-family="Arial" font-size="24px" font-style="normal" font-weight="normal" text-decoration="none" x="0" y="180"></text><text fill="#eeeeee" stroke="none" font-family="Arial" font-size="24px" font-style="normal" font-weight="normal" text-decoration="none" x="0" y="210"></text><text fill="#eeeeee" stroke="none" font-family="Arial" font-size="24px" font-style="normal" font-weight="normal" text-decoration="none" x="0" y="240"></text><text fill="#eeeeee" stroke="none" font-family="Arial" font-size="24px" font-style="normal" font-weight="normal" text-decoration="none" x="0" y="270"></text><text fill="#eeeeee" stroke="none" font-family="Arial" font-size="24px" font-style="normal" font-weight="normal" text-decoration="none" x="0" y="300"></text><text fill="#eeeeee" stroke="none" font-family="Arial" font-size="24px" font-style="normal" font-weight="normal" text-decoration="none" x="200" y="0"></text><text fill="#eeeeee" stroke="none" font-family="Arial" font-size="24px" font-style="normal" font-weight="normal" text-decoration="none" x="200" y="30"></text><text fill="#eeeeee" stroke="none" font-family="Arial" font-size="24px" font-style="normal" font-weight="normal" text-decoration="none" x="200" y="60"></text><text fill="#eeeeee" stroke="none" font-family="Arial" font-size="24px" font-style="normal" font-weight="normal" text-decoration="none" x="200" y="90"></text><text fill="#eeeeee" stroke="none" font-family="Arial" font-size="24px" font-style="normal" font-weight="normal" text-decoration="none" x="200" y="120"></text><text fill="#eeeeee" stroke="none" font-family="Arial" font-size="24px" font-style="normal" font-weight="normal" text-decoration="none" x="200" y="150"></text><text fill="#eeeeee" stroke="none" font-family="Arial" font-size="24px" font-style="normal" font-weight="normal" text-decoration="none" x="200" y="180"></text><text fill="#eeeeee" stroke="none" font-family="Arial" font-size="24px" font-style="normal" font-weight="normal" text-decoration="none" x="200" y="210"></text><text fill="#eeeeee" stroke="none" font-family="Arial" font-size="24px" font-style="normal" font-weight="normal" text-decoration="none" x="200" y="240"></text><text fill="#eeeeee" stroke="none" font-family="Arial" font-size="24px" font-style="normal" font-weight="normal" text-decoration="none" x="200" y="270"></text><text fill="#eeeeee" stroke="none" font-family="Arial" font-size="24px" font-style="normal" font-weight="normal" text-decoration="none" x="200" y="300"></text><text fill="#eeeeee" stroke="none" font-family="Arial" font-size="24px" font-style="normal" font-weight="normal" text-decoration="none" x="400" y="0"></text><text fill="#eeeeee" stroke="none" font-family="Arial" font-size="24px" font-style="normal" font-weight="normal" text-decoration="none" x="400" y="30"></text><text fill="#eeeeee" stroke="none" font-family="Arial" font-size="24px" font-style="normal" font-weight="normal" text-decoration="none" x="400" y="60"></text><text fill="#eeeeee" stroke="none" font-family="Arial" font-size="24px" font-style="normal" font-weight="normal" text-decoration="none" x="400" y="90"></text><text fill="#eeeeee" stroke="none" font-family="Arial" font-size="24px" font-style="normal" font-weight="normal" text-decoration="none" x="400" y="120"></text><text fill="#eeeeee" stroke="none" font-family="Arial" font-size="24px" font-style="normal" font-weight="normal" text-decoration="none" x="400" y="150"></text><text fill="#eeeeee" stroke="none" font-family="Arial" font-size="24px" font-style="normal" font-weight="normal" text-decoration="none" x="400" y="180"></text><text fill="#eeeeee" stroke="none" font-family="Arial" font-size="24px" font-style="normal" font-weight="normal" text-decoration="none" x="400" y="210"></text><text fill="#eeeeee" stroke="none" font-family="Arial" font-size="24px" font-style="normal" font-weight="normal" text-decoration="none" x="400" y="240"></text><text fill="#eeeeee" stroke="none" font-family="Arial" font-size="24px" font-style="normal" font-weight="normal" text-decoration="none" x="400" y="270"></text><text fill="#eeeeee" stroke="none" font-family="Arial" font-size="24px" font-style="normal" font-weight="normal" text-decoration="none" x="400" y="300"></text><g transform="translate(-134,-110) scale(1,1)"><rect fill="#C0C0C0" stroke="none" x="295" y="127" width="115.19999999999999" height="15" opacity="0.2"/></g><g transform="translate(-134,-110) scale(1,1)"><rect fill="#C0C0C0" stroke="none" x="295" y="141" width="288" height="290" opacity="0.2"/></g><g transform="translate(-134,-110) scale(1,1)"><rect fill="#ffffff" stroke="none" x="288" y="135" width="288" height="289"/></g><g transform="translate(-134,-110) scale(1,1)"><path fill="none" stroke="#000000" d="M 288 135 L 576 135 L 576 424 L 288 424 L 288 135 Z Z" stroke-miterlimit="10"/></g><g transform="translate(-134,-110) scale(1,1)"><rect fill="#ffffff" stroke="none" x="288" y="120" width="115.19999999999999" height="15"/></g><g transform="translate(-134,-110) scale(1,1)"><path fill="none" stroke="#000000" d="M 288 120 L 403.2 120 L 403.2 135 L 288 135 L 288 120 Z Z" stroke-miterlimit="10"/></g><g transform="translate(-134,-110) scale(1,1)"><rect fill="#ffffff" stroke="none" x="288" y="134" width="288" height="290"/></g><g transform="translate(-134,-110) scale(1,1)"><path fill="none" stroke="#000000" d="M 288 134 L 576 134 L 576 424 L 288 424 L 288 134 Z Z" stroke-miterlimit="10"/></g><g transform="translate(-134,-110) scale(1,1)"><g><path fill="none" stroke="none"/><text fill="#000000" stroke="none" font-family="Arial" font-size="13px" font-style="normal" font-weight="bold" text-decoration="none" x="396.595947265625" y="154.5">Report Card</text></g></g><g transform="translate(-134,-110) scale(1,1)"><path fill="#ffffff" stroke="none" d="M 170.17204563210228 233.68 C 170.17204563210228 228.886167936 174.05788795704774 225 178.851318359375 225 C 183.64474876170226 225 187.53059108664772 228.886167936 187.53059108664772 233.68 C 187.53059108664772 238.47383206400002 183.64474876170226 242.36 178.851318359375 242.36 C 174.05788795704774 242.36 170.17204563210228 238.47383206400002 170.17204563210228 233.68 Z"/></g><g transform="translate(-134,-110) scale(1,1)"><path fill="none" stroke="#000000" d="M 170.17204563210228 233.68 C 170.17204563210228 228.886167936 174.05788795704774 225 178.851318359375 225 C 183.64474876170226 225 187.53059108664772 228.886167936 187.53059108664772 233.68 C 187.53059108664772 238.47383206400002 183.64474876170226 242.36 178.851318359375 242.36 C 174.05788795704774 242.36 170.17204563210228 238.47383206400002 170.17204563210228 233.68 Z" stroke-miterlimit="10"/></g><g transform="translate(-134,-110) scale(1,1)"><path fill="none" stroke="#000000" d="M 178.851318359375 242.36 L 178.851318359375 259.64" stroke-miterlimit="10"/></g><g transform="translate(-134,-110) scale(1,1)"><path fill="none" stroke="#000000" d="M 169.66150017755683 248.84 L 188.04113654119317 248.84" stroke-miterlimit="10"/></g><g transform="translate(-134,-110) scale(1,1)"><path fill="none" stroke="#000000" d="M 178.851318359375 259.64 L 166.08768199573865 277" stroke-miterlimit="10"/></g><g transform="translate(-134,-110) scale(1,1)"><path fill="none" stroke="#000000" d="M 178.851318359375 259.64 L 191.61495472301135 277" stroke-miterlimit="10"/></g><g transform="translate(-134,-110) scale(1,1)"><g><path fill="none" stroke="none"/><text fill="#000000" stroke="none" font-family="Arial" font-size="13px" font-style="normal" font-weight="bold" text-decoration="none" x="149.947265625" y="297.5">Examinee</text></g></g><g transform="translate(-134,-110) scale(1,1)"><path fill="#C0C0C0" stroke="none" d="M 415 256 C 415 246.6111584 448.8024976 239 490.5 239 C 532.1975024 239 566 246.6111584 566 256 C 566 265.3888416 532.1975024 273 490.5 273 C 448.8024976 273 415 265.3888416 415 256 Z" opacity="0.2"/></g><g transform="translate(-134,-110) scale(1,1)"><path fill="#ffffff" stroke="none" d="M 408 249 C 408 239.6111584 441.8024976 232 483.5 232 C 525.1975024 232 559 239.6111584 559 249 C 559 258.3888416 525.1975024 266 483.5 266 C 441.8024976 266 408 258.3888416 408 249 Z"/></g><g transform="translate(-134,-110) scale(1,1)"><path fill="none" stroke="#000000" d="M 408 249 C 408 239.6111584 441.8024976 232 483.5 232 C 525.1975024 232 559 239.6111584 559 249 C 559 258.3888416 525.1975024 266 483.5 266 C 441.8024976 266 408 258.3888416 408 249 Z" stroke-miterlimit="10"/></g><g transform="translate(-134,-110) scale(1,1)"><g><path fill="none" stroke="none"/><text fill="#000000" stroke="none" font-family="Arial" font-size="13px" font-style="normal" font-weight="bold" text-decoration="none" x="437.736572265625" y="256">View time spent</text></g></g><g transform="translate(-134,-110) scale(1,1)"><path fill="#C0C0C0" stroke="none" d="M 431 208 C 431 198.6111584 463.6832096 191 504 191 C 544.3167904 191 577 198.6111584 577 208 C 577 217.3888416 544.3167904 225 504 225 C 463.6832096 225 431 217.3888416 431 208 Z" opacity="0.2"/></g><g transform="translate(-134,-110) scale(1,1)"><path fill="#ffffff" stroke="none" d="M 424 201 C 424 191.6111584 456.6832096 184 497 184 C 537.3167904 184 570 191.6111584 570 201 C 570 210.3888416 537.3167904 218 497 218 C 456.6832096 218 424 210.3888416 424 201 Z"/></g><g transform="translate(-134,-110) scale(1,1)"><path fill="none" stroke="#000000" d="M 424 201 C 424 191.6111584 456.6832096 184 497 184 C 537.3167904 184 570 191.6111584 570 201 C 570 210.3888416 537.3167904 218 497 218 C 456.6832096 218 424 210.3888416 424 201 Z" stroke-miterlimit="10"/></g><g transform="translate(-134,-110) scale(1,1)"><g><path fill="none" stroke="none"/><text fill="#000000" stroke="none" font-family="Arial" font-size="13px" font-style="normal" font-weight="bold" text-decoration="none" x="453.39794921875" y="208">View questions</text></g></g><g transform="translate(-134,-110) scale(1,1)"><path fill="#C0C0C0" stroke="none" d="M 327 304 C 327 294.6111584 364.3842192 287 410.5 287 C 456.6157808 287 494 294.6111584 494 304 C 494 313.3888416 456.6157808 321 410.5 321 C 364.3842192 321 327 313.3888416 327 304 Z" opacity="0.2"/></g><g transform="translate(-134,-110) scale(1,1)"><path fill="#ffffff" stroke="none" d="M 320 297 C 320 287.6111584 357.3842192 280 403.5 280 C 449.6157808 280 487 287.6111584 487 297 C 487 306.3888416 449.6157808 314 403.5 314 C 357.3842192 314 320 306.3888416 320 297 Z"/></g><g transform="translate(-134,-110) scale(1,1)"><path fill="none" stroke="#000000" d="M 320 297 C 320 287.6111584 357.3842192 280 403.5 280 C 449.6157808 280 487 287.6111584 487 297 C 487 306.3888416 449.6157808 314 403.5 314 C 357.3842192 314 320 306.3888416 320 297 Z" stroke-miterlimit="10"/></g><g transform="translate(-134,-110) scale(1,1)"><g><path fill="none" stroke="none"/><text fill="#000000" stroke="none" font-family="Arial" font-size="13px" font-style="normal" font-weight="bold" text-decoration="none" x="353.02978515625" y="304">View explaination</text></g></g><g transform="translate(-134,-110) scale(1,1)"><path fill="#C0C0C0" stroke="none" d="M 359 368 C 359 358.6111584 403.9953776 351 459.5 351 C 515.0046224 351 560 358.6111584 560 368 C 560 377.3888416 515.0046224 385 459.5 385 C 403.9953776 385 359 377.3888416 359 368 Z" opacity="0.2"/></g><g transform="translate(-134,-110) scale(1,1)"><path fill="#ffffff" stroke="none" d="M 352 361 C 352 351.6111584 396.9953776 344 452.5 344 C 508.0046224 344 553 351.6111584 553 361 C 553 370.3888416 508.0046224 378 452.5 378 C 396.9953776 378 352 370.3888416 352 361 Z"/></g><g transform="translate(-134,-110) scale(1,1)"><path fill="none" stroke="#000000" d="M 352 361 C 352 351.6111584 396.9953776 344 452.5 344 C 508.0046224 344 553 351.6111584 553 361 C 553 370.3888416 508.0046224 378 452.5 378 C 396.9953776 378 352 370.3888416 352 361 Z" stroke-miterlimit="10"/></g><g transform="translate(-134,-110) scale(1,1)"><g><path fill="none" stroke="none"/><text fill="#000000" stroke="none" font-family="Arial" font-size="13px" font-style="normal" font-weight="bold" text-decoration="none" x="390.842041015625" y="368">View interactive chart</text></g></g><g transform="translate(-134,-110) scale(1,1)"><path fill="none" stroke="#000000" d="M 215 256 L 423 215" stroke-miterlimit="10"/></g><g transform="translate(-134,-110) scale(1,1)"><path fill="none" stroke="#000000" d="M 215 269 L 319 284" stroke-miterlimit="10"/></g><g transform="translate(-134,-110) scale(1,1)"><path fill="none" stroke="#000000" d="M 215 261 L 407 252" stroke-miterlimit="10"/></g><g transform="translate(-134,-110) scale(1,1)"><path fill="none" stroke="#000000" d="M 215 276 L 402 343" stroke-miterlimit="10"/></g><g transform="translate(-134,-110) scale(1,1)"><path fill="none" stroke="#000000" d="M 215 247 L 320 203" stroke-miterlimit="10"/></g><g transform="translate(-134,-110) scale(1,1)"><path fill="#C0C0C0" stroke="none" d="M 311 192 C 311 182.6111584 337.1913392 175 369.5 175 C 401.8086608 175 428 182.6111584 428 192 C 428 201.3888416 401.8086608 209 369.5 209 C 337.1913392 209 311 201.3888416 311 192 Z" opacity="0.2"/></g><g transform="translate(-134,-110) scale(1,1)"><path fill="#ffffff" stroke="none" d="M 304 185 C 304 175.6111584 330.1913392 168 362.5 168 C 394.8086608 168 421 175.6111584 421 185 C 421 194.3888416 394.8086608 202 362.5 202 C 330.1913392 202 304 194.3888416 304 185 Z"/></g><g transform="translate(-134,-110) scale(1,1)"><path fill="none" stroke="#000000" d="M 304 185 C 304 175.6111584 330.1913392 168 362.5 168 C 394.8086608 168 421 175.6111584 421 185 C 421 194.3888416 394.8086608 202 362.5 202 C 330.1913392 202 304 194.3888416 304 185 Z" stroke-miterlimit="10"/></g><g transform="translate(-134,-110) scale(1,1)"><g><path fill="none" stroke="none"/><text fill="#000000" stroke="none" font-family="Arial" font-size="13px" font-style="normal" font-weight="bold" text-decoration="none" x="329.742919921875" y="192">View topics</text></g></g></g></svg>