<svg version="1.1" xmlns="http://www.w3.org/2000/svg" xmlns:xlink="http://www.w3.org/1999/xlink" width="620" height="396"><defs/><g><text fill="#eeeeee" stroke="none" font-family="Arial" font-size="24px" font-style="normal" font-weight="normal" text-decoration="none" x="0" y="0"></text><text fill="#eeeeee" stroke="none" font-family="Arial" font-size="24px" font-style="normal" font-weight="normal" text-decoration="none" x="0" y="30"></text><text fill="#eeeeee" stroke="none" font-family="Arial" font-size="24px" font-style="normal" font-weight="normal" text-decoration="none" x="0" y="60"></text><text fill="#eeeeee" stroke="none" font-family="Arial" font-size="24px" font-style="normal" font-weight="normal" text-decoration="none" x="0" y="90"></text><text fill="#eeeeee" stroke="none" font-family="Arial" font-size="24px" font-style="normal" font-weight="normal" text-decoration="none" x="0" y="120"></text><text fill="#eeeeee" stroke="none" font-family="Arial" font-size="24px" font-style="normal" font-weight="normal" text-decoration="none" x="0" y="150"></text><text fill="#eeeeee" stroke="none" font-family="Arial" font-size="24px" font-style="normal" font-weight="normal" text-decoration="none" x="0" y="180"></text><text fill="#eeeeee" stroke="none" font-family="Arial" font-size="24px" font-style="normal" font-weight="normal" text-decoration="none" x="0" y="210"></text><text fill="#eeeeee" stroke="none" font-family="Arial" font-size="24px" font-style="normal" font-weight="normal" text-decoration="none" x="0" y="240"></text><text fill="#eeeeee" stroke="none" font-family="Arial" font-size="24px" font-style="normal" font-weight="normal" text-decoration="none" x="0" y="270"></text><text fill="#eeeeee" stroke="none" font-family="Arial" font-size="24px" font-style="normal" font-weight="normal" text-decoration="none" x="0" y="300"></text><text fill="#eeeeee" stroke="none" font-family="Arial" font-size="24px" font-style="normal" font-weight="normal" text-decoration="none" x="0" y="330"></text><text fill="#eeeeee" stroke="none" font-family="Arial" font-size="24px" font-style="normal" font-weight="normal" text-decoration="none" x="0" y="360"></text><text fill="#eeeeee" stroke="none" font-family="Arial" font-size="24px" font-style="normal" font-weight="normal" text-decoration="none" x="0" y="390"></text><text fill="#eeeeee" stroke="none" font-family="Arial" font-size="24px" font-style="normal" font-weight="normal" text-decoration="none" x="200" y="0"></text><text fill="#eeeeee" stroke="none" font-family="Arial" font-size="24px" font-style="normal" font-weight="normal" text-decoration="none" x="200" y="30"></text><text fill="#eeeeee" stroke="none" font-family="Arial" font-size="24px" font-style="normal" font-weight="normal" text-decoration="none" x="200" y="60"></text><text fill="#eeeeee" stroke="none" font-family="Arial" font-size="24px" font-style="normal" font-weight="normal" text-decoration="none" x="200" y="90"></text><text fill="#eeeeee" stroke="none" font-family="Arial" font-size="24px" font-style="normal" font-weight="normal" text-decoration="none" x="200" y="120"></text><text fill="#eeeeee" stroke="none" font-family="Arial" font-size="24px" font-style="normal" font-weight="normal" text-decoration="none" x="200" y="150"></text><text fill="#eeeeee" stroke="none" font-family="Arial" font-size="24px" font-style="normal" font-weight="normal" text-decoration="none" x="200" y="180"></text><text fill="#eeeeee" stroke="none" font-family="Arial" font-size="24px" font-style="normal" font-weight="normal" text-decoration="none" x="200" y="210"></text><text fill="#eeeeee" stroke="none" font-family="Arial" font-size="24px" font-style="normal" font-weight="normal" text-decoration="none" x="200" y="240"></text><text fill="#eeeeee" stroke="none" font-family="Arial" font-size="24px" font-style="normal" font-weight="normal" text-decoration="none" x="200" y="270"></text><text fill="#eeeeee" stroke="none" font-family="Arial" font-size="24px" font-style="normal" font-weight="normal" text-decoration="none" x="200" y="300"></text><text fill="#eeeeee" stroke="none" font-family="Arial" font-size="24px" font-style="normal" font-weight="normal" text-decoration="none" x="200" y="330"></text><text fill="#eeeeee" stroke="none" font-family="Arial" font-size="24px" font-style="normal" font-weight="normal" text-decoration="none" x="200" y="360"></text><text fill="#eeeeee" stroke="none" font-family="Arial" font-size="24px" font-style="normal" font-weight="normal" text-decoration="none" x="200" y="390"></text><text fill="#eeeeee" stroke="none" font-family="Arial" font-size="24px" font-style="normal" font-weight="normal" text-decoration="none" x="400" y="0"></text><text fill="#eeeeee" stroke="none" font-family="Arial" font-size="24px" font-style="normal" font-weight="normal" text-decoration="none" x="400" y="30"></text><text fill="#eeeeee" stroke="none" font-family="Arial" font-size="24px" font-style="normal" font-weight="normal" text-decoration="none" x="400" y="60"></text><text fill="#eeeeee" stroke="none" font-family="Arial" font-size="24px" font-style="normal" font-weight="normal" text-decoration="none" x="400" y="90"></text><text fill="#eeeeee" stroke="none" font-family="Arial" font-size="24px" font-style="normal" font-weight="normal" text-decoration="none" x="400" y="120"></text><text fill="#eeeeee" stroke="none" font-family="Arial" font-size="24px" font-style="normal" font-weight="normal" text-decoration="none" x="400" y="150"></text><text fill="#eeeeee" stroke="none" font-family="Arial" font-size="24px" font-style="normal" font-weight="normal" text-decoration="none" x="400" y="180"></text><text fill="#eeeeee" stroke="none" font-family="Arial" font-size="24px" font-style="normal" font-weight="normal" text-decoration="none" x="400" y="210"></text><text fill="#eeeeee" stroke="none" font-family="Arial" font-size="24px" font-style="normal" font-weight="normal" text-decoration="none" x="400" y="240"></text><text fill="#eeeeee" stroke="none" font-family="Arial" font-size="24px" font-style="normal" font-weight="normal" text-decoration="none" x="400" y="270"></text><text fill="#eeeeee" stroke="none" font-family="Arial" font-size="24px" font-style="normal" font-weight="normal" text-decoration="none" x="400" y="300"></text><text fill="#eeeeee" stroke="none" font-family="Arial" font-size="24px" font-style="normal" font-weight="normal" text-decoration="none" x="400" y="330"></text><text fill="#eeeeee" stroke="none" font-family="Arial" font-size="24px" font-style="normal" font-weight="normal" text-decoration="none" x="400" y="360"></text><text fill="#eeeeee" stroke="none" font-family="Arial" font-size="24px" font-style="normal" font-weight="normal" text-decoration="none" x="400" y="390"></text><text fill="#eeeeee" stroke="none" font-family="Arial" font-size="24px" font-style="normal" font-weight="normal" text-decoration="none" x="600" y="0"></text><text fill="#eeeeee" stroke="none" font-family="Arial" font-size="24px" font-style="normal" font-weight="normal" text-decoration="none" x="600" y="30"></text><text fill="#eeeeee" stroke="none" font-family="Arial" font-size="24px" font-style="normal" font-weight="normal" text-decoration="none" x="600" y="60"></text><text fill="#eeeeee" stroke="none" font-family="Arial" font-size="24px" font-style="normal" font-weight="normal" text-decoration="none" x="600" y="90"></text><text fill="#eeeeee" stroke="none" font-family="Arial" font-size="24px" font-style="normal" font-weight="normal" text-decoration="none" x="600" y="120"></text><text fill="#eeeeee" stroke="none" font-family="Arial" font-size="24px" font-style="normal" font-weight="normal" text-decoration="none" x="600" y="150"></text><text fill="#eeeeee" stroke="none" font-family="Arial" font-size="24px" font-style="normal" font-weight="normal" text-decoration="none" x="600" y="180"></text><text fill="#eeeeee" stroke="none" font-family="Arial" font-size="24px" font-style="normal" font-weight="normal" text-decoration="none" x="600" y="210"></text><text fill="#eeeeee" stroke="none" font-family="Arial" font-size="24px" font-style="normal" font-weight="normal" text-decoration="none" x="600" y="240"></text><text fill="#eeeeee" stroke="none" font-family="Arial" font-size="24px" font-style="normal" font-weight="normal" text-decoration="none" x="600" y="270"></text><text fill="#eeeeee" stroke="none" font-family="Arial" font-size="24px" font-style="normal" font-weight="normal" text-decoration="none" x="600" y="300"></text><text fill="#eeeeee" stroke="none" font-family="Arial" font-size="24px" font-style="normal" font-weight="normal" text-decoration="none" x="600" y="330"></text><text fill="#eeeeee" stroke="none" font-family="Arial" font-size="24px" font-style="normal" font-weight="normal" text-decoration="none" x="600" y="360"></text><text fill="#eeeeee" stroke="none" font-family="Arial" font-size="24px" font-style="normal" font-weight="normal" text-decoration="none" x="600" y="390"></text><g transform="translate(-86,-102) scale(1,1)"><rect fill="#C0C0C0" stroke="none" x="207" y="119" width="198.39999999999998" height="15" opacity="0.2"/></g><g transform="translate(-86,-102) scale(1,1)"><rect fill="#C0C0C0" stroke="none" x="207" y="133" width="496" height="362" opacity="0.2"/></g><g transform="translate(-86,-102) scale(1,1)"><rect fill="#ffffff" stroke="none" x="200" y="127" width="496" height="361"/></g><g transform="translate(-86,-102) scale(1,1)"><path fill="none" stroke="#000000" d="M 200 127 L 696 127 L 696 488 L 200 488 L 200 127 Z Z" stroke-miterlimit="10"/></g><g transform="translate(-86,-102) scale(1,1)"><rect fill="#ffffff" stroke="none" x="200" y="112" width="198.39999999999998" height="15"/></g><g transform="translate(-86,-102) scale(1,1)"><path fill="none" stroke="#000000" d="M 200 112 L 398.4 112 L 398.4 127 L 200 127 L 200 112 Z Z" stroke-miterlimit="10"/></g><g transform="translate(-86,-102) scale(1,1)"><rect fill="#ffffff" stroke="none" x="200" y="126" width="496" height="362"/></g><g transform="translate(-86,-102) scale(1,1)"><path fill="none" stroke="#000000" d="M 200 126 L 696 126 L 696 488 L 200 488 L 200 126 Z Z" stroke-miterlimit="10"/></g><g transform="translate(-86,-102) scale(1,1)"><g><path fill="none" stroke="none"/><text fill="#000000" stroke="none" font-family="Arial" font-size="13px" font-style="normal" font-weight="bold" text-decoration="none" x="411.510498046875" y="146.5">Create Topic</text></g></g><g transform="translate(-86,-102) scale(1,1)"><path fill="#ffffff" stroke="none" d="M 121.08659641335228 273.68 C 121.08659641335228 268.886167936 124.97243873829774 265 129.765869140625 265 C 134.55929954295226 265 138.44514186789772 268.886167936 138.44514186789772 273.68 C 138.44514186789772 278.473832064 134.55929954295226 282.36 129.765869140625 282.36 C 124.97243873829774 282.36 121.08659641335228 278.473832064 121.08659641335228 273.68 Z"/></g><g transform="translate(-86,-102) scale(1,1)"><path fill="none" stroke="#000000" d="M 121.08659641335228 273.68 C 121.08659641335228 268.886167936 124.97243873829774 265 129.765869140625 265 C 134.55929954295226 265 138.44514186789772 268.886167936 138.44514186789772 273.68 C 138.44514186789772 278.473832064 134.55929954295226 282.36 129.765869140625 282.36 C 124.97243873829774 282.36 121.08659641335228 278.473832064 121.08659641335228 273.68 Z" stroke-miterlimit="10"/></g><g transform="translate(-86,-102) scale(1,1)"><path fill="none" stroke="#000000" d="M 129.765869140625 282.36 L 129.765869140625 299.64" stroke-miterlimit="10"/></g><g transform="translate(-86,-102) scale(1,1)"><path fill="none" stroke="#000000" d="M 120.57605095880683 288.84 L 138.95568732244317 288.84" stroke-miterlimit="10"/></g><g transform="translate(-86,-102) scale(1,1)"><path fill="none" stroke="#000000" d="M 129.765869140625 299.64 L 117.00223277698865 317" stroke-miterlimit="10"/></g><g transform="translate(-86,-102) scale(1,1)"><path fill="none" stroke="#000000" d="M 129.765869140625 299.64 L 142.52950550426135 317" stroke-miterlimit="10"/></g><g transform="translate(-86,-102) scale(1,1)"><g><path fill="none" stroke="none"/><text fill="#000000" stroke="none" font-family="Arial" font-size="13px" font-style="normal" font-weight="bold" text-decoration="none" x="102.312255859375" y="337.5">Examiner</text></g></g><g transform="translate(-86,-102) scale(1,1)"><path fill="#C0C0C0" stroke="none" d="M 231 296 C 231 286.6111584 270.6227952 279 319.5 279 C 368.3772048 279 408 286.6111584 408 296 C 408 305.3888416 368.3772048 313 319.5 313 C 270.6227952 313 231 305.3888416 231 296 Z" opacity="0.2"/></g><g transform="translate(-86,-102) scale(1,1)"><path fill="#ffffff" stroke="none" d="M 224 289 C 224 279.6111584 263.6227952 272 312.5 272 C 361.3772048 272 401 279.6111584 401 289 C 401 298.3888416 361.3772048 306 312.5 306 C 263.6227952 306 224 298.3888416 224 289 Z"/></g><g transform="translate(-86,-102) scale(1,1)"><path fill="none" stroke="#000000" d="M 224 289 C 224 279.6111584 263.6227952 272 312.5 272 C 361.3772048 272 401 279.6111584 401 289 C 401 298.3888416 361.3772048 306 312.5 306 C 263.6227952 306 224 298.3888416 224 289 Z" stroke-miterlimit="10"/></g><g transform="translate(-86,-102) scale(1,1)"><g><path fill="none" stroke="none"/><text fill="#000000" stroke="none" font-family="Arial" font-size="13px" font-style="normal" font-weight="bold" text-decoration="none" x="263.359619140625" y="296">Create questions</text></g></g><g transform="translate(-86,-102) scale(1,1)"><path fill="#C0C0C0" stroke="none" d="M 511 360 C 511 350.6111584 551.5182256 343 601.5 343 C 651.4817744 343 692 350.6111584 692 360 C 692 369.3888416 651.4817744 377 601.5 377 C 551.5182256 377 511 369.3888416 511 360 Z" opacity="0.2"/></g><g transform="translate(-86,-102) scale(1,1)"><path fill="#ffffff" stroke="none" d="M 504 353 C 504 343.6111584 544.5182256 336 594.5 336 C 644.4817744 336 685 343.6111584 685 353 C 685 362.3888416 644.4817744 370 594.5 370 C 544.5182256 370 504 362.3888416 504 353 Z"/></g><g transform="translate(-86,-102) scale(1,1)"><path fill="none" stroke="#000000" d="M 504 353 C 504 343.6111584 544.5182256 336 594.5 336 C 644.4817744 336 685 343.6111584 685 353 C 685 362.3888416 644.4817744 370 594.5 370 C 544.5182256 370 504 362.3888416 504 353 Z" stroke-miterlimit="10"/></g><g transform="translate(-86,-102) scale(1,1)"><g><path fill="none" stroke="none"/><text fill="#000000" stroke="none" font-family="Arial" font-size="13px" font-style="normal" font-weight="bold" text-decoration="none" x="540.681396484375" y="360">Set discriminativity</text></g></g><g transform="translate(-86,-102) scale(1,1)"><path fill="#C0C0C0" stroke="none" d="M 527 312 C 527 302.6111584 551.624336 295 582 295 C 612.375664 295 637 302.6111584 637 312 C 637 321.3888416 612.375664 329 582 329 C 551.624336 329 527 321.3888416 527 312 Z" opacity="0.2"/></g><g transform="translate(-86,-102) scale(1,1)"><path fill="#ffffff" stroke="none" d="M 520 305 C 520 295.6111584 544.624336 288 575 288 C 605.375664 288 630 295.6111584 630 305 C 630 314.3888416 605.375664 322 575 322 C 544.624336 322 520 314.3888416 520 305 Z"/></g><g transform="translate(-86,-102) scale(1,1)"><path fill="none" stroke="#000000" d="M 520 305 C 520 295.6111584 544.624336 288 575 288 C 605.375664 288 630 295.6111584 630 305 C 630 314.3888416 605.375664 322 575 322 C 544.624336 322 520 314.3888416 520 305 Z" stroke-miterlimit="10"/></g><g transform="translate(-86,-102) scale(1,1)"><g><path fill="none" stroke="none"/><text fill="#000000" stroke="none" font-family="Arial" font-size="13px" font-style="normal" font-weight="bold" text-decoration="none" x="542.8427734375" y="312">Select type</text></g></g><g transform="translate(-86,-102) scale(1,1)"><path fill="#C0C0C0" stroke="none" d="M 519 464 C 519 454.6111584 553.9217856 447 597 447 C 640.0782144 447 675 454.6111584 675 464 C 675 473.3888416 640.0782144 481 597 481 C 553.9217856 481 519 473.3888416 519 464 Z" opacity="0.2"/></g><g transform="translate(-86,-102) scale(1,1)"><path fill="#ffffff" stroke="none" d="M 512 457 C 512 447.6111584 546.9217856 440 590 440 C 633.0782144 440 668 447.6111584 668 457 C 668 466.3888416 633.0782144 474 590 474 C 546.9217856 474 512 466.3888416 512 457 Z"/></g><g transform="translate(-86,-102) scale(1,1)"><path fill="none" stroke="#000000" d="M 512 457 C 512 447.6111584 546.9217856 440 590 440 C 633.0782144 440 668 447.6111584 668 457 C 668 466.3888416 633.0782144 474 590 474 C 546.9217856 474 512 466.3888416 512 457 Z" stroke-miterlimit="10"/></g><g transform="translate(-86,-102) scale(1,1)"><g><path fill="none" stroke="none"/><text fill="#000000" stroke="none" font-family="Arial" font-size="13px" font-style="normal" font-weight="bold" text-decoration="none" x="543.379638671875" y="464">Add explanation</text></g></g><g transform="translate(-86,-102) scale(1,1)"><path fill="none" stroke="#000000" d="M 402 277 L 479 266" stroke-miterlimit="10" stroke-dasharray="3"/></g><g transform="translate(-86,-102) scale(1,1)"><path fill="none" stroke="#000000" d="M 469.53478088061274 271.60442923248974 L 479 266 L 468.3441494602911 263.2700092902383" stroke-miterlimit="10"/></g><g transform="translate(-86,-102) scale(1,1)"><g><path fill="none" stroke="none"/><text fill="#000000" stroke="none" font-family="Arial" font-size="13px" font-style="normal" font-weight="normal" text-decoration="none" x="408.5" y="247.5">«include»</text></g></g><g transform="translate(-86,-102) scale(1,1)"><path fill="none" stroke="#000000" d="M 402 294 L 519 302" stroke-miterlimit="10" stroke-dasharray="3"/></g><g transform="translate(-86,-102) scale(1,1)"><path fill="none" stroke="#000000" d="M 508.57383909343025 305.50644674140597 L 519 302 L 509.14815865250483 297.10702318994004" stroke-miterlimit="10"/></g><g transform="translate(-86,-102) scale(1,1)"><g><path fill="none" stroke="none"/><text fill="#000000" stroke="none" font-family="Arial" font-size="13px" font-style="normal" font-weight="normal" text-decoration="none" x="434.5" y="274.5">«include»</text></g></g><g transform="translate(-86,-102) scale(1,1)"><path fill="none" stroke="#000000" d="M 391 307 L 515 335" stroke-miterlimit="10" stroke-dasharray="3"/></g><g transform="translate(-86,-102) scale(1,1)"><path fill="none" stroke="#000000" d="M 504.1597182039311 336.8676965979028 L 515 335 L 506.0141023024505 328.65542416160275" stroke-miterlimit="10"/></g><g transform="translate(-86,-102) scale(1,1)"><g><path fill="none" stroke="none"/><text fill="#000000" stroke="none" font-family="Arial" font-size="13px" font-style="normal" font-weight="normal" text-decoration="none" x="431.5" y="297.5">«include»</text></g></g><g transform="translate(-86,-102) scale(1,1)"><path fill="none" stroke="#000000" d="M 354 307 L 547 391" stroke-miterlimit="10" stroke-dasharray="3"/></g><g transform="translate(-86,-102) scale(1,1)"><path fill="none" stroke="#000000" d="M 536.0017439679884 390.8041320487623 L 547 391 L 539.361558135076 383.08455902200154" stroke-miterlimit="10"/></g><g transform="translate(-86,-102) scale(1,1)"><g><path fill="none" stroke="none"/><text fill="#000000" stroke="none" font-family="Arial" font-size="13px" font-style="normal" font-weight="normal" text-decoration="none" x="433.5" y="327.5">«include»</text></g></g><g transform="translate(-86,-102) scale(1,1)"><path fill="none" stroke="#000000" d="M 342 307 L 560 439" stroke-miterlimit="10" stroke-dasharray="3"/></g><g transform="translate(-86,-102) scale(1,1)"><path fill="none" stroke="#000000" d="M 549.1264249188946 437.3370613494289 L 560 439 L 553.4870965209253 430.1353461278933" stroke-miterlimit="10"/></g><g transform="translate(-86,-102) scale(1,1)"><g><path fill="none" stroke="none"/><text fill="#000000" stroke="none" font-family="Arial" font-size="13px" font-style="normal" font-weight="normal" text-decoration="none" x="438.5" y="353.5">«include»</text></g></g><g transform="translate(-86,-102) scale(1,1)"><path fill="none" stroke="#000000" d="M 313 307 L 317 415" stroke-miterlimit="10" stroke-dasharray="3"/></g><g transform="translate(-86,-102) scale(1,1)"><path fill="none" stroke="#000000" d="M 312.41722899170594 405.0000895061236 L 317 415 L 320.8304960648887 404.6884870219316" stroke-miterlimit="10"/></g><g transform="translate(-86,-102) scale(1,1)"><g><path fill="none" stroke="none"/><text fill="#000000" stroke="none" font-family="Arial" font-size="13px" font-style="normal" font-weight="normal" text-decoration="none" x="317.5" y="365.5">«extend»</text></g></g><g transform="translate(-86,-102) scale(1,1)"><path fill="#C0C0C0" stroke="none" d="M 239 184 C 239 174.6111584 276.1603616 167 322 167 C 367.8396384 167 405 174.6111584 405 184 C 405 193.3888416 367.8396384 201 322 201 C 276.1603616 201 239 193.3888416 239 184 Z" opacity="0.2"/></g><g transform="translate(-86,-102) scale(1,1)"><path fill="#ffffff" stroke="none" d="M 232 177 C 232 167.6111584 269.1603616 160 315 160 C 360.8396384 160 398 167.6111584 398 177 C 398 186.3888416 360.8396384 194 315 194 C 269.1603616 194 232 186.3888416 232 177 Z"/></g><g transform="translate(-86,-102) scale(1,1)"><path fill="none" stroke="#000000" d="M 232 177 C 232 167.6111584 269.1603616 160 315 160 C 360.8396384 160 398 167.6111584 398 177 C 398 186.3888416 360.8396384 194 315 194 C 269.1603616 194 232 186.3888416 232 177 Z" stroke-miterlimit="10"/></g><g transform="translate(-86,-102) scale(1,1)"><g><path fill="none" stroke="none"/><text fill="#000000" stroke="none" font-family="Arial" font-size="13px" font-style="normal" font-weight="bold" text-decoration="none" x="265.86279296875" y="184">Assgin to subject</text></g></g><g transform="translate(-86,-102) scale(1,1)"><path fill="#C0C0C0" stroke="none" d="M 431 200 C 431 190.6111584 463.0116368 183 502.5 183 C 541.9883632 183 574 190.6111584 574 200 C 574 209.3888416 541.9883632 217 502.5 217 C 463.0116368 217 431 209.3888416 431 200 Z" opacity="0.2"/></g><g transform="translate(-86,-102) scale(1,1)"><path fill="#ffffff" stroke="none" d="M 424 193 C 424 183.6111584 456.0116368 176 495.5 176 C 534.9883632 176 567 183.6111584 567 193 C 567 202.3888416 534.9883632 210 495.5 210 C 456.0116368 210 424 202.3888416 424 193 Z"/></g><g transform="translate(-86,-102) scale(1,1)"><path fill="none" stroke="#000000" d="M 424 193 C 424 183.6111584 456.0116368 176 495.5 176 C 534.9883632 176 567 183.6111584 567 193 C 567 202.3888416 534.9883632 210 495.5 210 C 456.0116368 210 424 202.3888416 424 193 Z" stroke-miterlimit="10"/></g><g transform="translate(-86,-102) scale(1,1)"><g><path fill="none" stroke="none"/><text fill="#000000" stroke="none" font-family="Arial" font-size="13px" font-style="normal" font-weight="bold" text-decoration="none" x="452.142333984375" y="200">Set topic name</text></g></g><g transform="translate(-86,-102) scale(1,1)"><path fill="#C0C0C0" stroke="none" d="M 487 264 C 487 254.6111584 516.7730607999999 247 553.5 247 C 590.2269392000001 247 620 254.6111584 620 264 C 620 273.3888416 590.2269392000001 281 553.5 281 C 516.7730607999999 281 487 273.3888416 487 264 Z" opacity="0.2"/></g><g transform="translate(-86,-102) scale(1,1)"><path fill="#ffffff" stroke="none" d="M 480 257 C 480 247.6111584 509.7730608 240 546.5 240 C 583.2269392000001 240 613 247.6111584 613 257 C 613 266.3888416 583.2269392000001 274 546.5 274 C 509.7730608 274 480 266.3888416 480 257 Z"/></g><g transform="translate(-86,-102) scale(1,1)"><path fill="none" stroke="#000000" d="M 480 257 C 480 247.6111584 509.7730608 240 546.5 240 C 583.2269392000001 240 613 247.6111584 613 257 C 613 266.3888416 583.2269392000001 274 546.5 274 C 509.7730608 274 480 266.3888416 480 257 Z" stroke-miterlimit="10"/></g><g transform="translate(-86,-102) scale(1,1)"><g><path fill="none" stroke="none"/><text fill="#000000" stroke="none" font-family="Arial" font-size="13px" font-style="normal" font-weight="bold" text-decoration="none" x="506.3955078125" y="264">Set statement</text></g></g><g transform="translate(-86,-102) scale(1,1)"><path fill="#C0C0C0" stroke="none" d="M 535 416 C 535 406.6111584 562.5344848 399 596.5 399 C 630.4655152 399 658 406.6111584 658 416 C 658 425.3888416 630.4655152 433 596.5 433 C 562.5344848 433 535 425.3888416 535 416 Z" opacity="0.2"/></g><g transform="translate(-86,-102) scale(1,1)"><path fill="#ffffff" stroke="none" d="M 528 409 C 528 399.6111584 555.5344848 392 589.5 392 C 623.4655152 392 651 399.6111584 651 409 C 651 418.3888416 623.4655152 426 589.5 426 C 555.5344848 426 528 418.3888416 528 409 Z"/></g><g transform="translate(-86,-102) scale(1,1)"><path fill="none" stroke="#000000" d="M 528 409 C 528 399.6111584 555.5344848 392 589.5 392 C 623.4655152 392 651 399.6111584 651 409 C 651 418.3888416 623.4655152 426 589.5 426 C 555.5344848 426 528 418.3888416 528 409 Z" stroke-miterlimit="10"/></g><g transform="translate(-86,-102) scale(1,1)"><g><path fill="none" stroke="none"/><text fill="#000000" stroke="none" font-family="Arial" font-size="13px" font-style="normal" font-weight="bold" text-decoration="none" x="554.5751953125" y="416">Set difficulty</text></g></g><g transform="translate(-86,-102) scale(1,1)"><path fill="#C0C0C0" stroke="none" d="M 223 440 C 223 430.6111584 268.890808 423 325.5 423 C 382.109192 423 428 430.6111584 428 440 C 428 449.3888416 382.109192 457 325.5 457 C 268.890808 457 223 449.3888416 223 440 Z" opacity="0.2"/></g><g transform="translate(-86,-102) scale(1,1)"><path fill="#ffffff" stroke="none" d="M 216 433 C 216 423.6111584 261.890808 416 318.5 416 C 375.109192 416 421 423.6111584 421 433 C 421 442.3888416 375.109192 450 318.5 450 C 261.890808 450 216 442.3888416 216 433 Z"/></g><g transform="translate(-86,-102) scale(1,1)"><path fill="none" stroke="#000000" d="M 216 433 C 216 423.6111584 261.890808 416 318.5 416 C 375.109192 416 421 423.6111584 421 433 C 421 442.3888416 375.109192 450 318.5 450 C 261.890808 450 216 442.3888416 216 433 Z" stroke-miterlimit="10"/></g><g transform="translate(-86,-102) scale(1,1)"><g><path fill="none" stroke="none"/><text fill="#000000" stroke="none" font-family="Arial" font-size="13px" font-style="normal" font-weight="bold" text-decoration="none" x="255.629638671875" y="440">Set num. of questions</text></g></g><g transform="translate(-86,-102) scale(1,1)"><path fill="none" stroke="#000000" d="M 165 279 L 288 195" stroke-miterlimit="10"/></g><g transform="translate(-86,-102) scale(1,1)"><path fill="none" stroke="#000000" d="M 165 300 L 223 296" stroke-miterlimit="10"/></g><g transform="translate(-86,-102) scale(1,1)"><path fill="none" stroke="#000000" d="M 165 327 L 292 415" stroke-miterlimit="10"/></g><g transform="translate(-86,-102) scale(1,1)"><path fill="none" stroke="#000000" d="M 165 292 L 435 211" stroke-miterlimit="10"/></g><g transform="translate(-86,-102) scale(1,1)"><path fill="#C0C0C0" stroke="none" d="M 407 464 C 407 454.6111584 430.9527632 447 460.5 447 C 490.0472368 447 514 454.6111584 514 464 C 514 473.3888416 490.0472368 481 460.5 481 C 430.9527632 481 407 473.3888416 407 464 Z" opacity="0.2"/></g><g transform="translate(-86,-102) scale(1,1)"><path fill="#ffffff" stroke="none" d="M 400 457 C 400 447.6111584 423.9527632 440 453.5 440 C 483.0472368 440 507 447.6111584 507 457 C 507 466.3888416 483.0472368 474 453.5 474 C 423.9527632 474 400 466.3888416 400 457 Z"/></g><g transform="translate(-86,-102) scale(1,1)"><path fill="none" stroke="#000000" d="M 400 457 C 400 447.6111584 423.9527632 440 453.5 440 C 483.0472368 440 507 447.6111584 507 457 C 507 466.3888416 483.0472368 474 453.5 474 C 423.9527632 474 400 466.3888416 400 457 Z" stroke-miterlimit="10"/></g><g transform="translate(-86,-102) scale(1,1)"><g><path fill="none" stroke="none"/><text fill="#000000" stroke="none" font-family="Arial" font-size="13px" font-style="normal" font-weight="bold" text-decoration="none" x="422.425048828125" y="464">Add image</text></g></g><g transform="translate(-86,-102) scale(1,1)"><path fill="none" stroke="#000000" d="M 327 307 L 438 439" stroke-miterlimit="10" stroke-dasharray="3"/></g><g transform="translate(-86,-102) scale(1,1)"><path fill="none" stroke="#000000" d="M 428.23749782291327 433.9311193304264 L 438 439 L 434.68110840371446 428.51262861475266" stroke-miterlimit="10"/></g><g transform="translate(-86,-102) scale(1,1)"><g><path fill="none" stroke="none"/><text fill="#000000" stroke="none" font-family="Arial" font-size="13px" font-style="normal" font-weight="normal" text-decoration="none" x="376.5" y="359.5">«include»</text></g></g></g></svg>