<svg version="1.1" xmlns="http://www.w3.org/2000/svg" xmlns:xlink="http://www.w3.org/1999/xlink" width="468" height="316"><defs/><g><text fill="#eeeeee" stroke="none" font-family="Arial" font-size="24px" font-style="normal" font-weight="normal" text-decoration="none" x="0" y="0"></text><text fill="#eeeeee" stroke="none" font-family="Arial" font-size="24px" font-style="normal" font-weight="normal" text-decoration="none" x="0" y="30"></text><text fill="#eeeeee" stroke="none" font-family="Arial" font-size="24px" font-style="normal" font-weight="normal" text-decoration="none" x="0" y="60"></text><text fill="#eeeeee" stroke="none" font-family="Arial" font-size="24px" font-style="normal" font-weight="normal" text-decoration="none" x="0" y="90"></text><text fill="#eeeeee" stroke="none" font-family="Arial" font-size="24px" font-style="normal" font-weight="normal" text-decoration="none" x="0" y="120"></text><text fill="#eeeeee" stroke="none" font-family="Arial" font-size="24px" font-style="normal" font-weight="normal" text-decoration="none" x="0" y="150"></text><text fill="#eeeeee" stroke="none" font-family="Arial" font-size="24px" font-style="normal" font-weight="normal" text-decoration="none" x="0" y="180"></text><text fill="#eeeeee" stroke="none" font-family="Arial" font-size="24px" font-style="normal" font-weight="normal" text-decoration="none" x="0" y="210"></text><text fill="#eeeeee" stroke="none" font-family="Arial" font-size="24px" font-style="normal" font-weight="normal" text-decoration="none" x="0" y="240"></text><text fill="#eeeeee" stroke="none" font-family="Arial" font-size="24px" font-style="normal" font-weight="normal" text-decoration="none" x="0" y="270"></text><text fill="#eeeeee" stroke="none" font-family="Arial" font-size="24px" font-style="normal" font-weight="normal" text-decoration="none" x="0" y="300"></text><text fill="#eeeeee" stroke="none" font-family="Arial" font-size="24px" font-style="normal" font-weight="normal" text-decoration="none" x="200" y="0"></text><text fill="#eeeeee" stroke="none" font-family="Arial" font-size="24px" font-style="normal" font-weight="normal" text-decoration="none" x="200" y="30"></text><text fill="#eeeeee" stroke="none" font-family="Arial" font-size="24px" font-style="normal" font-weight="normal" text-decoration="none" x="200" y="60"></text><text fill="#eeeeee" stroke="none" font-family="Arial" font-size="24px" font-style="normal" font-weight="normal" text-decoration="none" x="200" y="90"></text><text fill="#eeeeee" stroke="none" font-family="Arial" font-size="24px" font-style="normal" font-weight="normal" text-decoration="none" x="200" y="120"></text><text fill="#eeeeee" stroke="none" font-family="Arial" font-size="24px" font-style="normal" font-weight="normal" text-decoration="none" x="200" y="150"></text><text fill="#eeeeee" stroke="none" font-family="Arial" font-size="24px" font-style="normal" font-weight="normal" text-decoration="none" x="200" y="180"></text><text fill="#eeeeee" stroke="none" font-family="Arial" font-size="24px" font-style="normal" font-weight="normal" text-decoration="none" x="200" y="210"></text><text fill="#eeeeee" stroke="none" font-family="Arial" font-size="24px" font-style="normal" font-weight="normal" text-decoration="none" x="200" y="240"></text><text fill="#eeeeee" stroke="none" font-family="Arial" font-size="24px" font-style="normal" font-weight="normal" text-decoration="none" x="200" y="270"></text><text fill="#eeeeee" stroke="none" font-family="Arial" font-size="24px" font-style="normal" font-weight="normal" text-decoration="none" x="200" y="300"></text><text fill="#eeeeee" stroke="none" font-family="Arial" font-size="24px" font-style="normal" font-weight="normal" text-decoration="none" x="400" y="0"></text><text fill="#eeeeee" stroke="none" font-family="Arial" font-size="24px" font-style="normal" font-weight="normal" text-decoration="none" x="400" y="30"></text><text fill="#eeeeee" stroke="none" font-family="Arial" font-size="24px" font-style="normal" font-weight="normal" text-decoration="none" x="400" y="60"></text><text fill="#eeeeee" stroke="none" font-family="Arial" font-size="24px" font-style="normal" font-weight="normal" text-decoration="none" x="400" y="90"></text><text fill="#eeeeee" stroke="none" font-family="Arial" font-size="24px" font-style="normal" font-weight="normal" text-decoration="none" x="400" y="120"></text><text fill="#eeeeee" stroke="none" font-family="Arial" font-size="24px" font-style="normal" font-weight="normal" text-decoration="none" x="400" y="150"></text><text fill="#eeeeee" stroke="none" font-family="Arial" font-size="24px" font-style="normal" font-weight="normal" text-decoration="none" x="400" y="180"></text><text fill="#eeeeee" stroke="none" font-family="Arial" font-size="24px" font-style="normal" font-weight="normal" text-decoration="none" x="400" y="210"></text><text fill="#eeeeee" stroke="none" font-family="Arial" font-size="24px" font-style="normal" font-weight="normal" text-decoration="none" x="400" y="240"></text><text fill="#eeeeee" stroke="none" font-family="Arial" font-size="24px" font-style="normal" font-weight="normal" text-decoration="none" x="400" y="270"></text><text fill="#eeeeee" stroke="none" font-family="Arial" font-size="24px" font-style="normal" font-weight="normal" text-decoration="none" x="400" y="300"></text><g transform="translate(-150,-110) scale(1,1)"><rect fill="#C0C0C0" stroke="none" x="271" y="127" width="137.60000000000002" height="15" opacity="0.2"/></g><g transform="translate(-150,-110) scale(1,1)"><rect fill="#C0C0C0" stroke="none" x="271" y="141" width="344" height="282" opacity="0.2"/></g><g transform="translate(-150,-110) scale(1,1)"><rect fill="#ffffff" stroke="none" x="264" y="135" width="344" height="281"/></g><g transform="translate(-150,-110) scale(1,1)"><path fill="none" stroke="#000000" d="M 264 135 L 608 135 L 608 416 L 264 416 L 264 135 Z Z" stroke-miterlimit="10"/></g><g transform="translate(-150,-110) scale(1,1)"><rect fill="#ffffff" stroke="none" x="264" y="120" width="137.60000000000002" height="15"/></g><g transform="translate(-150,-110) scale(1,1)"><path fill="none" stroke="#000000" d="M 264 120 L 401.6 120 L 401.6 135 L 264 135 L 264 120 Z Z" stroke-miterlimit="10"/></g><g transform="translate(-150,-110) scale(1,1)"><rect fill="#ffffff" stroke="none" x="264" y="134" width="344" height="282"/></g><g transform="translate(-150,-110) scale(1,1)"><path fill="none" stroke="#000000" d="M 264 134 L 608 134 L 608 416 L 264 416 L 264 134 Z Z" stroke-miterlimit="10"/></g><g transform="translate(-150,-110) scale(1,1)"><g><path fill="none" stroke="none"/><text fill="#000000" stroke="none" font-family="Arial" font-size="13px" font-style="normal" font-weight="bold" text-decoration="none" x="392.28369140625" y="154.5">Creating a Test</text></g></g><g transform="translate(-150,-110) scale(1,1)"><path fill="#ffffff" stroke="none" d="M 186.17204563210228 209.68 C 186.17204563210228 204.886167936 190.05788795704774 201 194.851318359375 201 C 199.64474876170226 201 203.53059108664772 204.886167936 203.53059108664772 209.68 C 203.53059108664772 214.47383206400002 199.64474876170226 218.36 194.851318359375 218.36 C 190.05788795704774 218.36 186.17204563210228 214.47383206400002 186.17204563210228 209.68 Z"/></g><g transform="translate(-150,-110) scale(1,1)"><path fill="none" stroke="#000000" d="M 186.17204563210228 209.68 C 186.17204563210228 204.886167936 190.05788795704774 201 194.851318359375 201 C 199.64474876170226 201 203.53059108664772 204.886167936 203.53059108664772 209.68 C 203.53059108664772 214.47383206400002 199.64474876170226 218.36 194.851318359375 218.36 C 190.05788795704774 218.36 186.17204563210228 214.47383206400002 186.17204563210228 209.68 Z" stroke-miterlimit="10"/></g><g transform="translate(-150,-110) scale(1,1)"><path fill="none" stroke="#000000" d="M 194.851318359375 218.36 L 194.851318359375 235.64" stroke-miterlimit="10"/></g><g transform="translate(-150,-110) scale(1,1)"><path fill="none" stroke="#000000" d="M 185.66150017755683 224.84 L 204.04113654119317 224.84" stroke-miterlimit="10"/></g><g transform="translate(-150,-110) scale(1,1)"><path fill="none" stroke="#000000" d="M 194.851318359375 235.64 L 182.08768199573865 253" stroke-miterlimit="10"/></g><g transform="translate(-150,-110) scale(1,1)"><path fill="none" stroke="#000000" d="M 194.851318359375 235.64 L 207.61495472301135 253" stroke-miterlimit="10"/></g><g transform="translate(-150,-110) scale(1,1)"><g><path fill="none" stroke="none"/><text fill="#000000" stroke="none" font-family="Arial" font-size="13px" font-style="normal" font-weight="bold" text-decoration="none" x="167.397705078125" y="273.5">Examiner</text></g></g><g transform="translate(-150,-110) scale(1,1)"><path fill="#C0C0C0" stroke="none" d="M 423 200 C 423 190.6111584 449.4151968 183 482 183 C 514.5848032 183 541 190.6111584 541 200 C 541 209.3888416 514.5848032 217 482 217 C 449.4151968 217 423 209.3888416 423 200 Z" opacity="0.2"/></g><g transform="translate(-150,-110) scale(1,1)"><path fill="#ffffff" stroke="none" d="M 416 193 C 416 183.6111584 442.4151968 176 475 176 C 507.5848032 176 534 183.6111584 534 193 C 534 202.3888416 507.5848032 210 475 210 C 442.4151968 210 416 202.3888416 416 193 Z"/></g><g transform="translate(-150,-110) scale(1,1)"><path fill="none" stroke="#000000" d="M 416 193 C 416 183.6111584 442.4151968 176 475 176 C 507.5848032 176 534 183.6111584 534 193 C 534 202.3888416 507.5848032 210 475 210 C 442.4151968 210 416 202.3888416 416 193 Z" stroke-miterlimit="10"/></g><g transform="translate(-150,-110) scale(1,1)"><g><path fill="none" stroke="none"/><text fill="#000000" stroke="none" font-family="Arial" font-size="13px" font-style="normal" font-weight="bold" text-decoration="none" x="442.122314453125" y="200">Set timeout</text></g></g><g transform="translate(-150,-110) scale(1,1)"><path fill="#C0C0C0" stroke="none" d="M 439 248 C 439 238.6111584 468.5492032 231 505 231 C 541.4507968 231 571 238.6111584 571 248 C 571 257.3888416 541.4507968 265 505 265 C 468.5492032 265 439 257.3888416 439 248 Z" opacity="0.2"/></g><g transform="translate(-150,-110) scale(1,1)"><path fill="#ffffff" stroke="none" d="M 432 241 C 432 231.6111584 461.5492032 224 498 224 C 534.4507968 224 564 231.6111584 564 241 C 564 250.3888416 534.4507968 258 498 258 C 461.5492032 258 432 250.3888416 432 241 Z"/></g><g transform="translate(-150,-110) scale(1,1)"><path fill="none" stroke="#000000" d="M 432 241 C 432 231.6111584 461.5492032 224 498 224 C 534.4507968 224 564 231.6111584 564 241 C 564 250.3888416 534.4507968 258 498 258 C 461.5492032 258 432 250.3888416 432 241 Z" stroke-miterlimit="10"/></g><g transform="translate(-150,-110) scale(1,1)"><g><path fill="none" stroke="none"/><text fill="#000000" stroke="none" font-family="Arial" font-size="13px" font-style="normal" font-weight="bold" text-decoration="none" x="458.263671875" y="248">Set time warn</text></g></g><g transform="translate(-150,-110) scale(1,1)"><path fill="#C0C0C0" stroke="none" d="M 479 296 C 479 286.6111584 501.6096176 279 529.5 279 C 557.3903824 279 580 286.6111584 580 296 C 580 305.3888416 557.3903824 313 529.5 313 C 501.6096176 313 479 305.3888416 479 296 Z" opacity="0.2"/></g><g transform="translate(-150,-110) scale(1,1)"><path fill="#ffffff" stroke="none" d="M 472 289 C 472 279.6111584 494.6096176 272 522.5 272 C 550.3903824 272 573 279.6111584 573 289 C 573 298.3888416 550.3903824 306 522.5 306 C 494.6096176 306 472 298.3888416 472 289 Z"/></g><g transform="translate(-150,-110) scale(1,1)"><path fill="none" stroke="#000000" d="M 472 289 C 472 279.6111584 494.6096176 272 522.5 272 C 550.3903824 272 573 279.6111584 573 289 C 573 298.3888416 550.3903824 306 522.5 306 C 494.6096176 306 472 298.3888416 472 289 Z" stroke-miterlimit="10"/></g><g transform="translate(-150,-110) scale(1,1)"><g><path fill="none" stroke="none"/><text fill="#000000" stroke="none" font-family="Arial" font-size="13px" font-style="normal" font-weight="bold" text-decoration="none" x="495.398681640625" y="296">Add topic</text></g></g><g transform="translate(-150,-110) scale(1,1)"><path fill="#C0C0C0" stroke="none" d="M 271 360 C 271 350.6111584 301.8923488 343 340 343 C 378.1076512 343 409 350.6111584 409 360 C 409 369.3888416 378.1076512 377 340 377 C 301.8923488 377 271 369.3888416 271 360 Z" opacity="0.2"/></g><g transform="translate(-150,-110) scale(1,1)"><path fill="#ffffff" stroke="none" d="M 264 353 C 264 343.6111584 294.8923488 336 333 336 C 371.1076512 336 402 343.6111584 402 353 C 402 362.3888416 371.1076512 370 333 370 C 294.8923488 370 264 362.3888416 264 353 Z"/></g><g transform="translate(-150,-110) scale(1,1)"><path fill="none" stroke="#000000" d="M 264 353 C 264 343.6111584 294.8923488 336 333 336 C 371.1076512 336 402 343.6111584 402 353 C 402 362.3888416 371.1076512 370 333 370 C 294.8923488 370 264 362.3888416 264 353 Z" stroke-miterlimit="10"/></g><g transform="translate(-150,-110) scale(1,1)"><g><path fill="none" stroke="none"/><text fill="#000000" stroke="none" font-family="Arial" font-size="13px" font-style="normal" font-weight="bold" text-decoration="none" x="291.4482421875" y="360">Select Subject</text></g></g><g transform="translate(-150,-110) scale(1,1)"><path fill="#C0C0C0" stroke="none" d="M 287 296 C 287 286.6111584 316.101488 279 352 279 C 387.898512 279 417 286.6111584 417 296 C 417 305.3888416 387.898512 313 352 313 C 316.101488 313 287 305.3888416 287 296 Z" opacity="0.2"/></g><g transform="translate(-150,-110) scale(1,1)"><path fill="#ffffff" stroke="none" d="M 280 289 C 280 279.6111584 309.101488 272 345 272 C 380.898512 272 410 279.6111584 410 289 C 410 298.3888416 380.898512 306 345 306 C 309.101488 306 280 298.3888416 280 289 Z"/></g><g transform="translate(-150,-110) scale(1,1)"><path fill="none" stroke="#000000" d="M 280 289 C 280 279.6111584 309.101488 272 345 272 C 380.898512 272 410 279.6111584 410 289 C 410 298.3888416 380.898512 306 345 306 C 309.101488 306 280 298.3888416 280 289 Z" stroke-miterlimit="10"/></g><g transform="translate(-150,-110) scale(1,1)"><g><path fill="none" stroke="none"/><text fill="#000000" stroke="none" font-family="Arial" font-size="13px" font-style="normal" font-weight="bold" text-decoration="none" x="306.6982421875" y="296">Set threshold</text></g></g><g transform="translate(-150,-110) scale(1,1)"><path fill="#C0C0C0" stroke="none" d="M 279 192 C 279 182.6111584 306.5344848 175 340.5 175 C 374.4655152 175 402 182.6111584 402 192 C 402 201.3888416 374.4655152 209 340.5 209 C 306.5344848 209 279 201.3888416 279 192 Z" opacity="0.2"/></g><g transform="translate(-150,-110) scale(1,1)"><path fill="#ffffff" stroke="none" d="M 272 185 C 272 175.6111584 299.5344848 168 333.5 168 C 367.4655152 168 395 175.6111584 395 185 C 395 194.3888416 367.4655152 202 333.5 202 C 299.5344848 202 272 194.3888416 272 185 Z"/></g><g transform="translate(-150,-110) scale(1,1)"><path fill="none" stroke="#000000" d="M 272 185 C 272 175.6111584 299.5344848 168 333.5 168 C 367.4655152 168 395 175.6111584 395 185 C 395 194.3888416 367.4655152 202 333.5 202 C 299.5344848 202 272 194.3888416 272 185 Z" stroke-miterlimit="10"/></g><g transform="translate(-150,-110) scale(1,1)"><g><path fill="none" stroke="none"/><text fill="#000000" stroke="none" font-family="Arial" font-size="13px" font-style="normal" font-weight="bold" text-decoration="none" x="298.5751953125" y="192">Set difficulty</text></g></g><g transform="translate(-150,-110) scale(1,1)"><path fill="none" stroke="#000000" d="M 231 225 L 287 203" stroke-miterlimit="10"/></g><g transform="translate(-150,-110) scale(1,1)"><path fill="none" stroke="#000000" d="M 231 251 L 291 271" stroke-miterlimit="10"/></g><g transform="translate(-150,-110) scale(1,1)"><path fill="none" stroke="#000000" d="M 231 269 L 311 335" stroke-miterlimit="10"/></g><g transform="translate(-150,-110) scale(1,1)"><path fill="none" stroke="#000000" d="M 231 233 L 415 203" stroke-miterlimit="10"/></g><g transform="translate(-150,-110) scale(1,1)"><path fill="none" stroke="#000000" d="M 231 239 L 431 241" stroke-miterlimit="10"/></g><g transform="translate(-150,-110) scale(1,1)"><path fill="none" stroke="#000000" d="M 231 245 L 471 281" stroke-miterlimit="10"/></g><g transform="translate(-150,-110) scale(1,1)"><path fill="#C0C0C0" stroke="none" d="M 399 384 C 399 374.6111584 444.890808 367 501.5 367 C 558.109192 367 604 374.6111584 604 384 C 604 393.3888416 558.109192 401 501.5 401 C 444.890808 401 399 393.3888416 399 384 Z" opacity="0.2"/></g><g transform="translate(-150,-110) scale(1,1)"><path fill="#ffffff" stroke="none" d="M 392 377 C 392 367.6111584 437.890808 360 494.5 360 C 551.109192 360 597 367.6111584 597 377 C 597 386.3888416 551.109192 394 494.5 394 C 437.890808 394 392 386.3888416 392 377 Z"/></g><g transform="translate(-150,-110) scale(1,1)"><path fill="none" stroke="#000000" d="M 392 377 C 392 367.6111584 437.890808 360 494.5 360 C 551.109192 360 597 367.6111584 597 377 C 597 386.3888416 551.109192 394 494.5 394 C 437.890808 394 392 386.3888416 392 377 Z" stroke-miterlimit="10"/></g><g transform="translate(-150,-110) scale(1,1)"><g><path fill="none" stroke="none"/><text fill="#000000" stroke="none" font-family="Arial" font-size="13px" font-style="normal" font-weight="bold" text-decoration="none" x="431.629638671875" y="384">Set num. of questions</text></g></g><g transform="translate(-150,-110) scale(1,1)"><path fill="none" stroke="#000000" d="M 386 335 L 471 306" stroke-miterlimit="10" stroke-dasharray="3"/></g><g transform="translate(-150,-110) scale(1,1)"><path fill="none" stroke="#000000" d="M 462.7409663534895 313.2655600765397 L 471 306 L 460.0224545032651 305.29750810174403" stroke-miterlimit="10"/></g><g transform="translate(-150,-110) scale(1,1)"><g><path fill="none" stroke="none"/><text fill="#000000" stroke="none" font-family="Arial" font-size="13px" font-style="normal" font-weight="normal" text-decoration="none" x="407.5" y="339.5">«include»</text></g></g><g transform="translate(-150,-110) scale(1,1)"><path fill="none" stroke="#000000" d="M 516 307 L 500 359" stroke-miterlimit="10" stroke-dasharray="3"/></g><g transform="translate(-150,-110) scale(1,1)"><path fill="none" stroke="#000000" d="M 498.96533015392174 348.04876909614194 L 500 359 L 507.01206757000654 350.5246883010911" stroke-miterlimit="10"/></g><g transform="translate(-150,-110) scale(1,1)"><g><path fill="none" stroke="none"/><text fill="#000000" stroke="none" font-family="Arial" font-size="13px" font-style="normal" font-weight="normal" text-decoration="none" x="508.5" y="347.5">«include»</text></g></g></g></svg>