<svg version="1.1" xmlns="http://www.w3.org/2000/svg" xmlns:xlink="http://www.w3.org/1999/xlink" width="540" height="501"><defs></defs><g><g transform="translate(-150,-38) scale(1,1)"><rect fill="#C0C0C0" stroke="none" x="557" y="279" width="130" height="185" opacity="0.2"></rect></g><g transform="translate(-150,-38) scale(1,1)"><rect fill="#ffffff" stroke="none" x="550" y="272" width="130" height="185"></rect></g><g transform="translate(-150,-38) scale(1,1)"><path fill="none" stroke="#000000" d="M 550 272 L 680 272 L 680 457 L 550 457 L 550 272 Z Z" stroke-miterlimit="10"></path></g><g transform="translate(-150,-38) scale(1,1)"><path fill="none" stroke="#000000" d="M 550 297 L 680 297" stroke-miterlimit="10"></path></g><g transform="translate(-150,-38) scale(1,1)"><path fill="none" stroke="#000000" d="M 550 425 L 680 425" stroke-miterlimit="10"></path></g><g transform="translate(-150,-38) scale(1,1)"><path fill="none" stroke="#000000" d="M 550 435 L 680 435" stroke-miterlimit="10"></path></g><g transform="translate(-150,-38) scale(1,1)"><g><path fill="none" stroke="none"></path><text fill="#000000" stroke="none" font-family="Arial" font-size="13px" font-style="normal" font-weight="bold" text-decoration="none" x="589" y="291.5">Question</text></g></g><g transform="translate(-150,-38) scale(1,1)"><g><path fill="none" stroke="none"></path><text fill="#000000" stroke="none" font-family="Arial" font-size="13px" font-style="normal" font-weight="normal" text-decoration="none" x="555" y="314.5">+statement</text></g></g><g transform="translate(-150,-38) scale(1,1)"><g><path fill="none" stroke="none"></path><text fill="#000000" stroke="none" font-family="Arial" font-size="13px" font-style="normal" font-weight="normal" text-decoration="none" x="555" y="329.5">+options</text></g></g><g transform="translate(-150,-38) scale(1,1)"><g><path fill="none" stroke="none"></path><text fill="#000000" stroke="none" font-family="Arial" font-size="13px" font-style="normal" font-weight="normal" text-decoration="none" x="555" y="344.5">+imgURL</text></g></g><g transform="translate(-150,-38) scale(1,1)"><g><path fill="none" stroke="none"></path><text fill="#000000" stroke="none" font-family="Arial" font-size="13px" font-style="normal" font-weight="normal" text-decoration="none" x="555" y="359.5">+type</text></g></g><g transform="translate(-150,-38) scale(1,1)"><g><path fill="none" stroke="none"></path><text fill="#000000" stroke="none" font-family="Arial" font-size="13px" font-style="normal" font-weight="normal" text-decoration="none" x="555" y="374.5">+difficulty</text></g></g><g transform="translate(-150,-38) scale(1,1)"><g><path fill="none" stroke="none"></path><text fill="#000000" stroke="none" font-family="Arial" font-size="13px" font-style="normal" font-weight="normal" text-decoration="none" x="555" y="389.5">+correctAns</text></g></g><g transform="translate(-150,-38) scale(1,1)"><g><path fill="none" stroke="none"></path><text fill="#000000" stroke="none" font-family="Arial" font-size="13px" font-style="normal" font-weight="normal" text-decoration="none" x="555" y="404.5">+explain</text></g></g><g transform="translate(-150,-38) scale(1,1)"><g><path fill="none" stroke="none"></path><text fill="#000000" stroke="none" font-family="Arial" font-size="13px" font-style="normal" font-weight="normal" text-decoration="none" x="555" y="419.5">+userAns</text></g></g><g transform="translate(-150,-38) scale(1,1)"><g><path fill="none" stroke="none"></path><text fill="#000000" stroke="none" font-family="Arial" font-size="13px" font-style="normal" font-weight="normal" text-decoration="none" x="555" y="452.5">+checkUserAnswer()</text></g></g><g transform="translate(-150,-38) scale(1,1)"><rect fill="#C0C0C0" stroke="none" x="367" y="279" width="124" height="200" opacity="0.2"></rect></g><g transform="translate(-150,-38) scale(1,1)"><rect fill="#ffffff" stroke="none" x="360" y="272" width="124" height="200"></rect></g><g transform="translate(-150,-38) scale(1,1)"><path fill="none" stroke="#000000" d="M 360 272 L 484 272 L 484 472 L 360 472 L 360 272 Z Z" stroke-miterlimit="10"></path></g><g transform="translate(-150,-38) scale(1,1)"><path fill="none" stroke="#000000" d="M 360 297 L 484 297" stroke-miterlimit="10"></path></g><g transform="translate(-150,-38) scale(1,1)"><path fill="none" stroke="#000000" d="M 360 365 L 484 365" stroke-miterlimit="10"></path></g><g transform="translate(-150,-38) scale(1,1)"><path fill="none" stroke="#000000" d="M 360 375 L 484 375" stroke-miterlimit="10"></path></g><g transform="translate(-150,-38) scale(1,1)"><g><path fill="none" stroke="none"></path><text fill="#000000" stroke="none" font-family="Arial" font-size="13px" font-style="normal" font-weight="bold" text-decoration="none" x="406" y="291.5">Topic</text></g></g><g transform="translate(-150,-38) scale(1,1)"><g><path fill="none" stroke="none"></path><text fill="#000000" stroke="none" font-family="Arial" font-size="13px" font-style="normal" font-weight="normal" text-decoration="none" x="365" y="314.5">+topicTitle</text></g></g><g transform="translate(-150,-38) scale(1,1)"><g><path fill="none" stroke="none"></path><text fill="#000000" stroke="none" font-family="Arial" font-size="13px" font-style="normal" font-weight="normal" text-decoration="none" x="365" y="329.5">+questions</text></g></g><g transform="translate(-150,-38) scale(1,1)"><g><path fill="none" stroke="none"></path><text fill="#000000" stroke="none" font-family="Arial" font-size="13px" font-style="normal" font-weight="normal" text-decoration="none" x="365" y="344.5">+pickedQuestions</text></g></g><g transform="translate(-150,-38) scale(1,1)"><g><path fill="none" stroke="none"></path><text fill="#000000" stroke="none" font-family="Arial" font-size="13px" font-style="normal" font-weight="normal" text-decoration="none" x="365" y="359.5">+questionsDone</text></g></g><g transform="translate(-150,-38) scale(1,1)"><g><path fill="none" stroke="none"></path><text fill="#000000" stroke="none" font-family="Arial" font-size="13px" font-style="normal" font-weight="normal" text-decoration="none" x="365" y="392.5">+nextQuestion()</text></g></g><g transform="translate(-150,-38) scale(1,1)"><g><path fill="none" stroke="none"></path><text fill="#000000" stroke="none" font-family="Arial" font-size="13px" font-style="normal" font-weight="normal" text-decoration="none" x="365" y="407.5">+addQuestion()</text></g></g><g transform="translate(-150,-38) scale(1,1)"><g><path fill="none" stroke="none"></path><text fill="#000000" stroke="none" font-family="Arial" font-size="13px" font-style="normal" font-weight="normal" text-decoration="none" x="365" y="422.5">+uppDifficulty()</text></g></g><g transform="translate(-150,-38) scale(1,1)"><g><path fill="none" stroke="none"></path><text fill="#000000" stroke="none" font-family="Arial" font-size="13px" font-style="normal" font-weight="normal" text-decoration="none" x="365" y="437.5">+lowDifficulty()</text></g></g><g transform="translate(-150,-38) scale(1,1)"><g><path fill="none" stroke="none"></path><text fill="#000000" stroke="none" font-family="Arial" font-size="13px" font-style="normal" font-weight="normal" text-decoration="none" x="365" y="452.5">+statisfy()</text></g></g><g transform="translate(-150,-38) scale(1,1)"><g><path fill="none" stroke="none"></path><text fill="#000000" stroke="none" font-family="Arial" font-size="13px" font-style="normal" font-weight="normal" text-decoration="none" x="365" y="467.5">+sortByPickCount()</text></g></g><g transform="translate(-150,-38) scale(1,1)"><rect fill="#C0C0C0" stroke="none" x="167" y="55" width="143" height="185" opacity="0.2"></rect></g><g transform="translate(-150,-38) scale(1,1)"><rect fill="#ffffff" stroke="none" x="160" y="48" width="143" height="185"></rect></g><g transform="translate(-150,-38) scale(1,1)"><path fill="none" stroke="#000000" d="M 160 48 L 303 48 L 303 233 L 160 233 L 160 48 Z Z" stroke-miterlimit="10"></path></g><g transform="translate(-150,-38) scale(1,1)"><path fill="none" stroke="#000000" d="M 160 73 L 303 73" stroke-miterlimit="10"></path></g><g transform="translate(-150,-38) scale(1,1)"><path fill="none" stroke="#000000" d="M 160 171 L 303 171" stroke-miterlimit="10"></path></g><g transform="translate(-150,-38) scale(1,1)"><path fill="none" stroke="#000000" d="M 160 181 L 303 181" stroke-miterlimit="10"></path></g><g transform="translate(-150,-38) scale(1,1)"><g><path fill="none" stroke="none"></path><text fill="#000000" stroke="none" font-family="Arial" font-size="13px" font-style="normal" font-weight="bold" text-decoration="none" x="218.5" y="67.5">Test</text></g></g><g transform="translate(-150,-38) scale(1,1)"><g><path fill="none" stroke="none"></path><text fill="#000000" stroke="none" font-family="Arial" font-size="13px" font-style="normal" font-weight="normal" text-decoration="none" x="165" y="90.5">+testTitle</text></g></g><g transform="translate(-150,-38) scale(1,1)"><g><path fill="none" stroke="none"></path><text fill="#000000" stroke="none" font-family="Arial" font-size="13px" font-style="normal" font-weight="normal" text-decoration="none" x="165" y="105.5">+Topics</text></g></g><g transform="translate(-150,-38) scale(1,1)"><g><path fill="none" stroke="none"></path><text fill="#000000" stroke="none" font-family="Arial" font-size="13px" font-style="normal" font-weight="normal" text-decoration="none" x="165" y="120.5">+currentQuestion</text></g></g><g transform="translate(-150,-38) scale(1,1)"><g><path fill="none" stroke="none"></path><text fill="#000000" stroke="none" font-family="Arial" font-size="13px" font-style="normal" font-weight="normal" text-decoration="none" x="165" y="135.5">+previousQuestion</text></g></g><g transform="translate(-150,-38) scale(1,1)"><g><path fill="none" stroke="none"></path><text fill="#000000" stroke="none" font-family="Arial" font-size="13px" font-style="normal" font-weight="normal" text-decoration="none" x="165" y="150.5">+currentDifficulty</text></g></g><g transform="translate(-150,-38) scale(1,1)"><g><path fill="none" stroke="none"></path><text fill="#000000" stroke="none" font-family="Arial" font-size="13px" font-style="normal" font-weight="normal" text-decoration="none" x="165" y="165.5">+currentTopicIndex</text></g></g><g transform="translate(-150,-38) scale(1,1)"><g><path fill="none" stroke="none"></path><text fill="#000000" stroke="none" font-family="Arial" font-size="13px" font-style="normal" font-weight="normal" text-decoration="none" x="165" y="198.5">+pickQuestion()</text></g></g><g transform="translate(-150,-38) scale(1,1)"><g><path fill="none" stroke="none"></path><text fill="#000000" stroke="none" font-family="Arial" font-size="13px" font-style="normal" font-weight="normal" text-decoration="none" x="165" y="213.5">+nextTopic()</text></g></g><g transform="translate(-150,-38) scale(1,1)"><g><path fill="none" stroke="none"></path><text fill="#000000" stroke="none" font-family="Arial" font-size="13px" font-style="normal" font-weight="normal" text-decoration="none" x="165" y="228.5">+answerLastQuestion()</text></g></g><g transform="translate(-150,-38) scale(1,1)"><rect fill="#C0C0C0" stroke="none" x="167" y="311" width="109" height="110" opacity="0.2"></rect></g><g transform="translate(-150,-38) scale(1,1)"><rect fill="#ffffff" stroke="none" x="160" y="304" width="109" height="110"></rect></g><g transform="translate(-150,-38) scale(1,1)"><path fill="none" stroke="#000000" d="M 160 304 L 269 304 L 269 414 L 160 414 L 160 304 Z Z" stroke-miterlimit="10"></path></g><g transform="translate(-150,-38) scale(1,1)"><path fill="none" stroke="#000000" d="M 160 329 L 269 329" stroke-miterlimit="10"></path></g><g transform="translate(-150,-38) scale(1,1)"><path fill="none" stroke="#000000" d="M 160 382 L 269 382" stroke-miterlimit="10"></path></g><g transform="translate(-150,-38) scale(1,1)"><path fill="none" stroke="#000000" d="M 160 392 L 269 392" stroke-miterlimit="10"></path></g><g transform="translate(-150,-38) scale(1,1)"><g><path fill="none" stroke="none"></path><text fill="#000000" stroke="none" font-family="Arial" font-size="13px" font-style="normal" font-weight="bold" text-decoration="none" x="196.5" y="323.5">Metric</text></g></g><g transform="translate(-150,-38) scale(1,1)"><g><path fill="none" stroke="none"></path><text fill="#000000" stroke="none" font-family="Arial" font-size="13px" font-style="normal" font-weight="normal" text-decoration="none" x="165" y="346.5">+timeSpent</text></g></g><g transform="translate(-150,-38) scale(1,1)"><g><path fill="none" stroke="none"></path><text fill="#000000" stroke="none" font-family="Arial" font-size="13px" font-style="normal" font-weight="normal" text-decoration="none" x="165" y="361.5">+progress</text></g></g><g transform="translate(-150,-38) scale(1,1)"><g><path fill="none" stroke="none"></path><text fill="#000000" stroke="none" font-family="Arial" font-size="13px" font-style="normal" font-weight="normal" text-decoration="none" x="165" y="376.5">+pickCount</text></g></g><g transform="translate(-150,-38) scale(1,1)"><g><path fill="none" stroke="none"></path><text fill="#000000" stroke="none" font-family="Arial" font-size="13px" font-style="normal" font-weight="normal" text-decoration="none" x="165" y="409.5">+avgTimeSpent()</text></g></g><g transform="translate(-150,-38) scale(1,1)"><rect fill="#C0C0C0" stroke="none" x="447" y="55" width="93" height="132" opacity="0.2"></rect></g><g transform="translate(-150,-38) scale(1,1)"><rect fill="#ffffff" stroke="none" x="440" y="48" width="93" height="132"></rect></g><g transform="translate(-150,-38) scale(1,1)"><path fill="none" stroke="#000000" d="M 440 48 L 533 48 L 533 180 L 440 180 L 440 48 Z Z" stroke-miterlimit="10"></path></g><g transform="translate(-150,-38) scale(1,1)"><path fill="none" stroke="#000000" d="M 440 73 L 533 73" stroke-miterlimit="10"></path></g><g transform="translate(-150,-38) scale(1,1)"><path fill="none" stroke="#000000" d="M 440 171 L 533 171" stroke-miterlimit="10"></path></g><g transform="translate(-150,-38) scale(1,1)"><g><path fill="none" stroke="none"></path><text fill="#000000" stroke="none" font-family="Arial" font-size="13px" font-style="normal" font-weight="bold" text-decoration="none" x="456.5" y="67.5">Parameter</text></g></g><g transform="translate(-150,-38) scale(1,1)"><g><path fill="none" stroke="none"></path><text fill="#000000" stroke="none" font-family="Arial" font-size="13px" font-style="normal" font-weight="normal" text-decoration="none" x="445" y="90.5">+tolerance</text></g></g><g transform="translate(-150,-38) scale(1,1)"><g><path fill="none" stroke="none"></path><text fill="#000000" stroke="none" font-family="Arial" font-size="13px" font-style="normal" font-weight="normal" text-decoration="none" x="445" y="105.5">+threshold</text></g></g><g transform="translate(-150,-38) scale(1,1)"><g><path fill="none" stroke="none"></path><text fill="#000000" stroke="none" font-family="Arial" font-size="13px" font-style="normal" font-weight="normal" text-decoration="none" x="445" y="120.5">+maxDifficulty</text></g></g><g transform="translate(-150,-38) scale(1,1)"><g><path fill="none" stroke="none"></path><text fill="#000000" stroke="none" font-family="Arial" font-size="13px" font-style="normal" font-weight="normal" text-decoration="none" x="445" y="135.5">+minDifficulty</text></g></g><g transform="translate(-150,-38) scale(1,1)"><g><path fill="none" stroke="none"></path><text fill="#000000" stroke="none" font-family="Arial" font-size="13px" font-style="normal" font-weight="normal" text-decoration="none" x="445" y="150.5">+timerWarn</text></g></g><g transform="translate(-150,-38) scale(1,1)"><g><path fill="none" stroke="none"></path><text fill="#000000" stroke="none" font-family="Arial" font-size="13px" font-style="normal" font-weight="normal" text-decoration="none" x="445" y="165.5">+timerOut</text></g></g><g transform="translate(-150,-38) scale(1,1)"><path fill="none" stroke="#000000" d="M 550 347 L 484 347" stroke-miterlimit="10"></path></g><g transform="translate(-150,-38) scale(1,1)"><path fill="#000000" stroke="none" d="M 494.16267485762415 342.790482243984 L 484 347 L 494.16267485762415 351.209517756016 L 506 347"></path></g><g transform="translate(-150,-38) scale(1,1)"><path fill="none" stroke="#000000" d="M 494.16267485762415 342.790482243984 L 484 347 L 494.16267485762415 351.209517756016 L 506 347 L 494.16267485762415 342.790482243984" stroke-miterlimit="10"></path></g><g transform="translate(-150,-38) scale(1,1)"><path fill="none" stroke="#000000" d="M 208 414 L 208 528 L 608 528 L 608 457" stroke-miterlimit="10"></path></g><g transform="translate(-150,-38) scale(1,1)"><path fill="#FFFFFF" stroke="none" d="M 612.209517756016 467.16267485762415 L 608 457 L 603.790482243984 467.16267485762415 L 608 479"></path></g><g transform="translate(-150,-38) scale(1,1)"><path fill="none" stroke="#000000" d="M 612.209517756016 467.16267485762415 L 608 457 L 603.790482243984 467.16267485762415 L 608 479 L 612.209517756016 467.16267485762415" stroke-miterlimit="10"></path></g><g transform="translate(-150,-38) scale(1,1)"><path fill="none" stroke="#000000" d="M 269 359 L 360 359" stroke-miterlimit="10"></path></g><g transform="translate(-150,-38) scale(1,1)"><path fill="#FFFFFF" stroke="none" d="M 349.83732514237585 363.209517756016 L 360 359 L 349.83732514237585 354.790482243984 L 338 359"></path></g><g transform="translate(-150,-38) scale(1,1)"><path fill="none" stroke="#000000" d="M 349.83732514237585 363.209517756016 L 360 359 L 349.83732514237585 354.790482243984 L 338 359 L 349.83732514237585 363.209517756016" stroke-miterlimit="10"></path></g><g transform="translate(-150,-38) scale(1,1)"><path fill="none" stroke="#000000" d="M 208 304 L 208 233" stroke-miterlimit="10"></path></g><g transform="translate(-150,-38) scale(1,1)"><path fill="#FFFFFF" stroke="none" d="M 212.209517756016 243.16267485762415 L 208 233 L 203.790482243984 243.16267485762415 L 208 255"></path></g><g transform="translate(-150,-38) scale(1,1)"><path fill="none" stroke="#000000" d="M 212.209517756016 243.16267485762415 L 208 233 L 203.790482243984 243.16267485762415 L 208 255 L 212.209517756016 243.16267485762415" stroke-miterlimit="10"></path></g><g transform="translate(-150,-38) scale(1,1)"><path fill="none" stroke="#000000" d="M 464 180 L 464 272" stroke-miterlimit="10"></path></g><g transform="translate(-150,-38) scale(1,1)"><path fill="#FFFFFF" stroke="none" d="M 459.790482243984 261.83732514237585 L 464 272 L 468.209517756016 261.83732514237585 L 464 250"></path></g><g transform="translate(-150,-38) scale(1,1)"><path fill="none" stroke="#000000" d="M 459.790482243984 261.83732514237585 L 464 272 L 468.209517756016 261.83732514237585 L 464 250 L 459.790482243984 261.83732514237585" stroke-miterlimit="10"></path></g><g transform="translate(-150,-38) scale(1,1)"><path fill="none" stroke="#000000" d="M 440 88 L 303 88" stroke-miterlimit="10"></path></g><g transform="translate(-150,-38) scale(1,1)"><path fill="#FFFFFF" stroke="none" d="M 313.16267485762415 83.79048224398402 L 303 88 L 313.16267485762415 92.20951775601598 L 325 88"></path></g><g transform="translate(-150,-38) scale(1,1)"><path fill="none" stroke="#000000" d="M 313.16267485762415 83.79048224398402 L 303 88 L 313.16267485762415 92.20951775601598 L 325 88 L 313.16267485762415 83.79048224398402" stroke-miterlimit="10"></path></g><g transform="translate(-150,-38) scale(1,1)"><path fill="none" stroke="#000000" d="M 408 272 L 408 128 L 303 128" stroke-miterlimit="10"></path></g><g transform="translate(-150,-38) scale(1,1)"><path fill="#000000" stroke="none" d="M 313.16267485762415 123.79048224398402 L 303 128 L 313.16267485762415 132.209517756016 L 325 128"></path></g><g transform="translate(-150,-38) scale(1,1)"><path fill="none" stroke="#000000" d="M 313.16267485762415 123.79048224398402 L 303 128 L 313.16267485762415 132.209517756016 L 325 128 L 313.16267485762415 123.79048224398402" stroke-miterlimit="10"></path></g></g></svg>