<svg version="1.1" xmlns="http://www.w3.org/2000/svg" xmlns:xlink="http://www.w3.org/1999/xlink" width="551" height="400"><defs></defs><g><g transform="translate(-150,-38) scale(1,1)"><rect fill="#C0C0C0" stroke="none" x="551" y="55" width="147" height="336" opacity="0.2"></rect></g><g transform="translate(-150,-38) scale(1,1)"><rect fill="#ffffff" stroke="none" x="544" y="48" width="147" height="336"></rect></g><g transform="translate(-150,-38) scale(1,1)"><path fill="none" stroke="#000000" d="M 544 48 L 691 48 L 691 384 L 544 384 L 544 48 Z Z" stroke-miterlimit="10"></path></g><g transform="translate(-150,-38) scale(1,1)"><path fill="none" stroke="#000000" d="M 544 73 L 691 73" stroke-miterlimit="10"></path></g><g transform="translate(-150,-38) scale(1,1)"><path fill="none" stroke="#000000" d="M 544 261 L 691 261" stroke-miterlimit="10"></path></g><g transform="translate(-150,-38) scale(1,1)"><path fill="none" stroke="#000000" d="M 544 271 L 691 271" stroke-miterlimit="10"></path></g><g transform="translate(-150,-38) scale(1,1)"><g><path fill="none" stroke="none"></path><text fill="#000000" stroke="none" font-family="Arial" font-size="13px" font-style="normal" font-weight="bold" text-decoration="none" x="591.5" y="67.5">Question</text></g></g><g transform="translate(-150,-38) scale(1,1)"><g><path fill="none" stroke="none"></path><text fill="#000000" stroke="none" font-family="Arial" font-size="13px" font-style="normal" font-weight="normal" text-decoration="none" x="549" y="90.5">+statement</text></g></g><g transform="translate(-150,-38) scale(1,1)"><g><path fill="none" stroke="none"></path><text fill="#000000" stroke="none" font-family="Arial" font-size="13px" font-style="normal" font-weight="normal" text-decoration="none" x="549" y="105.5">+options</text></g></g><g transform="translate(-150,-38) scale(1,1)"><g><path fill="none" stroke="none"></path><text fill="#000000" stroke="none" font-family="Arial" font-size="13px" font-style="normal" font-weight="normal" text-decoration="none" x="549" y="120.5">+imgURL</text></g></g><g transform="translate(-150,-38) scale(1,1)"><g><path fill="none" stroke="none"></path><text fill="#000000" stroke="none" font-family="Arial" font-size="13px" font-style="normal" font-weight="normal" text-decoration="none" x="549" y="135.5">+type</text></g></g><g transform="translate(-150,-38) scale(1,1)"><g><path fill="none" stroke="none"></path><text fill="#000000" stroke="none" font-family="Arial" font-size="13px" font-style="normal" font-weight="normal" text-decoration="none" x="549" y="150.5">+difficulty</text></g></g><g transform="translate(-150,-38) scale(1,1)"><g><path fill="none" stroke="none"></path><text fill="#000000" stroke="none" font-family="Arial" font-size="13px" font-style="normal" font-weight="normal" text-decoration="none" x="549" y="165.5">+correctAns</text></g></g><g transform="translate(-150,-38) scale(1,1)"><g><path fill="none" stroke="none"></path><text fill="#000000" stroke="none" font-family="Arial" font-size="13px" font-style="normal" font-weight="normal" text-decoration="none" x="549" y="180.5">+explain</text></g></g><g transform="translate(-150,-38) scale(1,1)"><g><path fill="none" stroke="none"></path><text fill="#000000" stroke="none" font-family="Arial" font-size="13px" font-style="normal" font-weight="normal" text-decoration="none" x="549" y="195.5">+userAns</text></g></g><g transform="translate(-150,-38) scale(1,1)"><g><path fill="none" stroke="none"></path><text fill="#000000" stroke="none" font-family="Arial" font-size="13px" font-style="normal" font-weight="normal" text-decoration="none" x="549" y="210.5">+isCorrect</text></g></g><g transform="translate(-150,-38) scale(1,1)"><g><path fill="none" stroke="none"></path><text fill="#000000" stroke="none" font-family="Arial" font-size="13px" font-style="normal" font-weight="normal" text-decoration="none" x="549" y="225.5">+metric_pickCount</text></g></g><g transform="translate(-150,-38) scale(1,1)"><g><path fill="none" stroke="none"></path><text fill="#000000" stroke="none" font-family="Arial" font-size="13px" font-style="normal" font-weight="normal" text-decoration="none" x="549" y="240.5">+metric_timeSpent</text></g></g><g transform="translate(-150,-38) scale(1,1)"><g><path fill="none" stroke="none"></path><text fill="#000000" stroke="none" font-family="Arial" font-size="13px" font-style="normal" font-weight="normal" text-decoration="none" x="549" y="255.5">+metric_correctCount</text></g></g><g transform="translate(-150,-38) scale(1,1)"><g><path fill="none" stroke="none"></path><text fill="#000000" stroke="none" font-family="Arial" font-size="13px" font-style="normal" font-weight="normal" text-decoration="none" x="549" y="288.5">+init()</text></g></g><g transform="translate(-150,-38) scale(1,1)"><g><path fill="none" stroke="none"></path><text fill="#000000" stroke="none" font-family="Arial" font-size="13px" font-style="normal" font-weight="normal" text-decoration="none" x="549" y="303.5">+isUserAnswerCorrect()</text></g></g><g transform="translate(-150,-38) scale(1,1)"><g><path fill="none" stroke="none"></path><text fill="#000000" stroke="none" font-family="Arial" font-size="13px" font-style="normal" font-weight="normal" text-decoration="none" x="549" y="318.5">+getUserAnswer()</text></g></g><g transform="translate(-150,-38) scale(1,1)"><g><path fill="none" stroke="none"></path><text fill="#000000" stroke="none" font-family="Arial" font-size="13px" font-style="normal" font-weight="normal" text-decoration="none" x="549" y="333.5">+setUserAnswer()</text></g></g><g transform="translate(-150,-38) scale(1,1)"><g><path fill="none" stroke="none"></path><text fill="#000000" stroke="none" font-family="Arial" font-size="13px" font-style="normal" font-weight="normal" text-decoration="none" x="549" y="348.5">+getTimeSpent()</text></g></g><g transform="translate(-150,-38) scale(1,1)"><g><path fill="none" stroke="none"></path><text fill="#000000" stroke="none" font-family="Arial" font-size="13px" font-style="normal" font-weight="normal" text-decoration="none" x="549" y="363.5">+trackMetric()</text></g></g><g transform="translate(-150,-38) scale(1,1)"><g><path fill="none" stroke="none"></path><text fill="#000000" stroke="none" font-family="Arial" font-size="13px" font-style="normal" font-weight="normal" text-decoration="none" x="549" y="378.5">+avgTimeSpent()</text></g></g><g transform="translate(-150,-38) scale(1,1)"><rect fill="#C0C0C0" stroke="none" x="367" y="55" width="132" height="296" opacity="0.2"></rect></g><g transform="translate(-150,-38) scale(1,1)"><rect fill="#ffffff" stroke="none" x="360" y="48" width="132" height="296"></rect></g><g transform="translate(-150,-38) scale(1,1)"><path fill="none" stroke="#000000" d="M 360 48 L 492 48 L 492 344 L 360 344 L 360 48 Z Z" stroke-miterlimit="10"></path></g><g transform="translate(-150,-38) scale(1,1)"><path fill="none" stroke="#000000" d="M 360 73 L 492 73" stroke-miterlimit="10"></path></g><g transform="translate(-150,-38) scale(1,1)"><path fill="none" stroke="#000000" d="M 360 216 L 492 216" stroke-miterlimit="10"></path></g><g transform="translate(-150,-38) scale(1,1)"><path fill="none" stroke="#000000" d="M 360 226 L 492 226" stroke-miterlimit="10"></path></g><g transform="translate(-150,-38) scale(1,1)"><g><path fill="none" stroke="none"></path><text fill="#000000" stroke="none" font-family="Arial" font-size="13px" font-style="normal" font-weight="bold" text-decoration="none" x="410" y="67.5">Topic</text></g></g><g transform="translate(-150,-38) scale(1,1)"><g><path fill="none" stroke="none"></path><text fill="#000000" stroke="none" font-family="Arial" font-size="13px" font-style="normal" font-weight="normal" text-decoration="none" x="365" y="90.5">+topicTitle</text></g></g><g transform="translate(-150,-38) scale(1,1)"><g><path fill="none" stroke="none"></path><text fill="#000000" stroke="none" font-family="Arial" font-size="13px" font-style="normal" font-weight="normal" text-decoration="none" x="365" y="105.5">+questions</text></g></g><g transform="translate(-150,-38) scale(1,1)"><g><path fill="none" stroke="none"></path><text fill="#000000" stroke="none" font-family="Arial" font-size="13px" font-style="normal" font-weight="normal" text-decoration="none" x="365" y="120.5">+pickedQuestions</text></g></g><g transform="translate(-150,-38) scale(1,1)"><g><path fill="none" stroke="none"></path><text fill="#000000" stroke="none" font-family="Arial" font-size="13px" font-style="normal" font-weight="normal" text-decoration="none" x="365" y="135.5">+progress</text></g></g><g transform="translate(-150,-38) scale(1,1)"><g><path fill="none" stroke="none"></path><text fill="#000000" stroke="none" font-family="Arial" font-size="13px" font-style="normal" font-weight="normal" text-decoration="none" x="365" y="150.5">+totalNumQuestions</text></g></g><g transform="translate(-150,-38) scale(1,1)"><g><path fill="none" stroke="none"></path><text fill="#000000" stroke="none" font-family="Arial" font-size="13px" font-style="normal" font-weight="normal" text-decoration="none" x="365" y="165.5">+percent</text></g></g><g transform="translate(-150,-38) scale(1,1)"><g><path fill="none" stroke="none"></path><text fill="#000000" stroke="none" font-family="Arial" font-size="13px" font-style="normal" font-weight="normal" text-decoration="none" x="365" y="180.5">+sucessRate</text></g></g><g transform="translate(-150,-38) scale(1,1)"><g><path fill="none" stroke="none"></path><text fill="#000000" stroke="none" font-family="Arial" font-size="13px" font-style="normal" font-weight="normal" text-decoration="none" x="365" y="195.5">+metric_correctQ</text></g></g><g transform="translate(-150,-38) scale(1,1)"><g><path fill="none" stroke="none"></path><text fill="#000000" stroke="none" font-family="Arial" font-size="13px" font-style="normal" font-weight="normal" text-decoration="none" x="365" y="210.5">+metric_wrongQ</text></g></g><g transform="translate(-150,-38) scale(1,1)"><g><path fill="none" stroke="none"></path><text fill="#000000" stroke="none" font-family="Arial" font-size="13px" font-style="normal" font-weight="normal" text-decoration="none" x="365" y="243.5">+init()</text></g></g><g transform="translate(-150,-38) scale(1,1)"><g><path fill="none" stroke="none"></path><text fill="#000000" stroke="none" font-family="Arial" font-size="13px" font-style="normal" font-weight="normal" text-decoration="none" x="365" y="258.5">+loadTopic()</text></g></g><g transform="translate(-150,-38) scale(1,1)"><g><path fill="none" stroke="none"></path><text fill="#000000" stroke="none" font-family="Arial" font-size="13px" font-style="normal" font-weight="normal" text-decoration="none" x="365" y="273.5">+parseQuizRequest()</text></g></g><g transform="translate(-150,-38) scale(1,1)"><g><path fill="none" stroke="none"></path><text fill="#000000" stroke="none" font-family="Arial" font-size="13px" font-style="normal" font-weight="normal" text-decoration="none" x="365" y="288.5">+uppDifficulty()</text></g></g><g transform="translate(-150,-38) scale(1,1)"><g><path fill="none" stroke="none"></path><text fill="#000000" stroke="none" font-family="Arial" font-size="13px" font-style="normal" font-weight="normal" text-decoration="none" x="365" y="303.5">+lowDifficulty()</text></g></g><g transform="translate(-150,-38) scale(1,1)"><g><path fill="none" stroke="none"></path><text fill="#000000" stroke="none" font-family="Arial" font-size="13px" font-style="normal" font-weight="normal" text-decoration="none" x="365" y="318.5">+statisfy()</text></g></g><g transform="translate(-150,-38) scale(1,1)"><g><path fill="none" stroke="none"></path><text fill="#000000" stroke="none" font-family="Arial" font-size="13px" font-style="normal" font-weight="normal" text-decoration="none" x="365" y="333.5">+sortByPickCount()</text></g></g><g transform="translate(-150,-38) scale(1,1)"><rect fill="#C0C0C0" stroke="none" x="167" y="55" width="143" height="380" opacity="0.2"></rect></g><g transform="translate(-150,-38) scale(1,1)"><rect fill="#ffffff" stroke="none" x="160" y="48" width="143" height="380"></rect></g><g transform="translate(-150,-38) scale(1,1)"><path fill="none" stroke="#000000" d="M 160 48 L 303 48 L 303 428 L 160 428 L 160 48 Z Z" stroke-miterlimit="10"></path></g><g transform="translate(-150,-38) scale(1,1)"><path fill="none" stroke="#000000" d="M 160 73 L 303 73" stroke-miterlimit="10"></path></g><g transform="translate(-150,-38) scale(1,1)"><path fill="none" stroke="#000000" d="M 160 306 L 303 306" stroke-miterlimit="10"></path></g><g transform="translate(-150,-38) scale(1,1)"><path fill="none" stroke="#000000" d="M 160 316 L 303 316" stroke-miterlimit="10"></path></g><g transform="translate(-150,-38) scale(1,1)"><g><path fill="none" stroke="none"></path><text fill="#000000" stroke="none" font-family="Arial" font-size="13px" font-style="normal" font-weight="bold" text-decoration="none" x="218.5" y="67.5">Test</text></g></g><g transform="translate(-150,-38) scale(1,1)"><g><path fill="none" stroke="none"></path><text fill="#000000" stroke="none" font-family="Arial" font-size="13px" font-style="normal" font-weight="normal" text-decoration="none" x="165" y="90.5">+testTitle</text></g></g><g transform="translate(-150,-38) scale(1,1)"><g><path fill="none" stroke="none"></path><text fill="#000000" stroke="none" font-family="Arial" font-size="13px" font-style="normal" font-weight="normal" text-decoration="none" x="165" y="105.5">+topics</text></g></g><g transform="translate(-150,-38) scale(1,1)"><g><path fill="none" stroke="none"></path><text fill="#000000" stroke="none" font-family="Arial" font-size="13px" font-style="normal" font-weight="normal" text-decoration="none" x="165" y="120.5">+currentQuestion</text></g></g><g transform="translate(-150,-38) scale(1,1)"><g><path fill="none" stroke="none"></path><text fill="#000000" stroke="none" font-family="Arial" font-size="13px" font-style="normal" font-weight="normal" text-decoration="none" x="165" y="135.5">+currentTopic</text></g></g><g transform="translate(-150,-38) scale(1,1)"><g><path fill="none" stroke="none"></path><text fill="#000000" stroke="none" font-family="Arial" font-size="13px" font-style="normal" font-weight="normal" text-decoration="none" x="165" y="150.5">+currentDifficulty</text></g></g><g transform="translate(-150,-38) scale(1,1)"><g><path fill="none" stroke="none"></path><text fill="#000000" stroke="none" font-family="Arial" font-size="13px" font-style="normal" font-weight="normal" text-decoration="none" x="165" y="165.5">+currentTopicIndex</text></g></g><g transform="translate(-150,-38) scale(1,1)"><g><path fill="none" stroke="none"></path><text fill="#000000" stroke="none" font-family="Arial" font-size="13px" font-style="normal" font-weight="normal" text-decoration="none" x="165" y="180.5">+progress</text></g></g><g transform="translate(-150,-38) scale(1,1)"><g><path fill="none" stroke="none"></path><text fill="#000000" stroke="none" font-family="Arial" font-size="13px" font-style="normal" font-weight="normal" text-decoration="none" x="165" y="195.5">+totalNumQuestions</text></g></g><g transform="translate(-150,-38) scale(1,1)"><g><path fill="none" stroke="none"></path><text fill="#000000" stroke="none" font-family="Arial" font-size="13px" font-style="normal" font-weight="normal" text-decoration="none" x="165" y="210.5">+percent</text></g></g><g transform="translate(-150,-38) scale(1,1)"><g><path fill="none" stroke="none"></path><text fill="#000000" stroke="none" font-family="Arial" font-size="13px" font-style="normal" font-weight="normal" text-decoration="none" x="165" y="225.5">+param_timeWarn</text></g></g><g transform="translate(-150,-38) scale(1,1)"><g><path fill="none" stroke="none"></path><text fill="#000000" stroke="none" font-family="Arial" font-size="13px" font-style="normal" font-weight="normal" text-decoration="none" x="165" y="240.5">+param_timeOut</text></g></g><g transform="translate(-150,-38) scale(1,1)"><g><path fill="none" stroke="none"></path><text fill="#000000" stroke="none" font-family="Arial" font-size="13px" font-style="normal" font-weight="normal" text-decoration="none" x="165" y="255.5">+param_threshold</text></g></g><g transform="translate(-150,-38) scale(1,1)"><g><path fill="none" stroke="none"></path><text fill="#000000" stroke="none" font-family="Arial" font-size="13px" font-style="normal" font-weight="normal" text-decoration="none" x="165" y="270.5">+param_minDifficulty</text></g></g><g transform="translate(-150,-38) scale(1,1)"><g><path fill="none" stroke="none"></path><text fill="#000000" stroke="none" font-family="Arial" font-size="13px" font-style="normal" font-weight="normal" text-decoration="none" x="165" y="285.5">+param_maxDifficulty</text></g></g><g transform="translate(-150,-38) scale(1,1)"><g><path fill="none" stroke="none"></path><text fill="#000000" stroke="none" font-family="Arial" font-size="13px" font-style="normal" font-weight="normal" text-decoration="none" x="165" y="300.5">+metric_tick</text></g></g><g transform="translate(-150,-38) scale(1,1)"><g><path fill="none" stroke="none"></path><text fill="#000000" stroke="none" font-family="Arial" font-size="13px" font-style="normal" font-weight="normal" text-decoration="none" x="165" y="333.5">+init()</text></g></g><g transform="translate(-150,-38) scale(1,1)"><g><path fill="none" stroke="none"></path><text fill="#000000" stroke="none" font-family="Arial" font-size="13px" font-style="normal" font-weight="normal" text-decoration="none" x="165" y="348.5">+loadQuiz()</text></g></g><g transform="translate(-150,-38) scale(1,1)"><g><path fill="none" stroke="none"></path><text fill="#000000" stroke="none" font-family="Arial" font-size="13px" font-style="normal" font-weight="normal" text-decoration="none" x="165" y="363.5">+pickQuestion()</text></g></g><g transform="translate(-150,-38) scale(1,1)"><g><path fill="none" stroke="none"></path><text fill="#000000" stroke="none" font-family="Arial" font-size="13px" font-style="normal" font-weight="normal" text-decoration="none" x="165" y="378.5">+nextTopic()</text></g></g><g transform="translate(-150,-38) scale(1,1)"><g><path fill="none" stroke="none"></path><text fill="#000000" stroke="none" font-family="Arial" font-size="13px" font-style="normal" font-weight="normal" text-decoration="none" x="165" y="393.5">+answerLastQuestion()</text></g></g><g transform="translate(-150,-38) scale(1,1)"><g><path fill="none" stroke="none"></path><text fill="#000000" stroke="none" font-family="Arial" font-size="13px" font-style="normal" font-weight="normal" text-decoration="none" x="165" y="408.5">+markTest()</text></g></g><g transform="translate(-150,-38) scale(1,1)"><g><path fill="none" stroke="none"></path><text fill="#000000" stroke="none" font-family="Arial" font-size="13px" font-style="normal" font-weight="normal" text-decoration="none" x="165" y="423.5">+graphChart()</text></g></g><g transform="translate(-150,-38) scale(1,1)"><path fill="none" stroke="#000000" d="M 544 184 L 492 184" stroke-miterlimit="10"></path></g><g transform="translate(-150,-38) scale(1,1)"><path fill="#000000" stroke="none" d="M 502.16267485762415 179.790482243984 L 492 184 L 502.16267485762415 188.209517756016 L 514 184"></path></g><g transform="translate(-150,-38) scale(1,1)"><path fill="none" stroke="#000000" d="M 502.16267485762415 179.790482243984 L 492 184 L 502.16267485762415 188.209517756016 L 514 184 L 502.16267485762415 179.790482243984" stroke-miterlimit="10"></path></g><g transform="translate(-150,-38) scale(1,1)"><path fill="none" stroke="#000000" d="M 360 176 L 303 176" stroke-miterlimit="10"></path></g><g transform="translate(-150,-38) scale(1,1)"><path fill="#000000" stroke="none" d="M 313.16267485762415 171.790482243984 L 303 176 L 313.16267485762415 180.209517756016 L 325 176"></path></g><g transform="translate(-150,-38) scale(1,1)"><path fill="none" stroke="#000000" d="M 313.16267485762415 171.790482243984 L 303 176 L 313.16267485762415 180.209517756016 L 325 176 L 313.16267485762415 171.790482243984" stroke-miterlimit="10"></path></g></g></svg>